<svg width="1937.29" height="1120.63" viewBox="0 0 1452.967 840.473" xmlns="http://www.w3.org/2000/svg"><g class="graph" transform="matrix(.3 0 0 .3 359.777 822.421)"><path fill="#fff" stroke="transparent" d="M932-1317.5V3.5l-.5.5h-935l-.5-.5v-2642l.5-.5h935l.5.5v1321h0"/><g class="node"><text x="634.506" y="-2226.2" font-family="Times,serif" font-size="12">badGtpuEchoPkt</text><text x="667.248" y="-2213.9" font-family="Times,serif" font-style="italic" font-size="9" fill="#888">Sink</text><path fill="none" stroke="#000" d="M717.5-2223v16h-85v-32h85v16h0"/></g><g class="node"><text x="242" y="-1819.7" font-family="Times,serif" font-size="12">badPkts</text><text x="252.748" y="-1807.4" font-family="Times,serif" font-style="italic" font-size="9" fill="#888">Sink</text><path fill="none" stroke="#000" d="M292-1816.5v16h-62v-32h62v16"/></g><g class="node"><text x="738.679" y="-1983.2" font-family="Times,serif" font-size="12">echoOuterIPCsum</text><text x="760.004" y="-1970.9" font-family="Times,serif" font-style="italic" font-size="9" fill="#888">IPChecksum</text><path fill="none" stroke="#000" d="M829-1980v16h-92v-32h92v16h0"/></g><g class="node"><text x="721.001" y="-499.7" font-family="Times,serif" font-size="12">s1uRoutes</text><text x="728.001" y="-487.4" font-family="Times,serif" font-style="italic" font-size="9" fill="#888">IPLookup</text><path fill="#01295f" stroke="transparent" d="M742-478v3l-.5.5h-25l-.5-.5v-6l.5-.5h25l.5.5v3h0"/><text x="727.5" y="-476.1" font-family="Times,serif" font-size="6" fill="#fff">0</text><path fill="#01295f" stroke="transparent" d="M776-478v3l-.5.5h-33l-.5-.5v-6l.5-.5h33l.5.5v3"/><text x="753" y="-476.1" font-family="Times,serif" font-size="6" fill="#fff">8191</text><path fill="none" stroke="#000" d="M777-493.5v19l-.5.5h-61l-.5-.5v-38l.5-.5h61l.5.5v19"/></g><g class="edge"><path fill="none" stroke="#ffb30f" d="M783-1963.969v1372l-.006 1-.017 1-.028 1-.039.999-.048.999-.06.998-.069.997-.08.997-.088.996-.098.996-.108.994-.116.993-.126.992-.134.99-.143.99-.15.99-.16.986-.168.986-.175.985-.183.983-.191.981-.198.98-.206.98-.213.976-.22.976-.226.974-.234.972-.24.97-.247.97-.253.967-.26.966-.266.964-.271.962-.278.961-.284.959-.29.957-.294.956-.3.953-.307.952-.311.95-.317.949-.322.947-.328.945-.332.943-.337.941-.342.94-.346.938-.352.936-.357.934-.36.933-.366.931-.37.93-.373.927-.38.925-.382.924-.387.922-.39.92-.396.92-.399.916-.404.915-.407.913-.41.912-.416.91-.418.908-.422.907-.427.904-.43.903-.433.901-.437.9-.441.897-.444.896-.448.894-.45.893-.455.89-.458.89-.461.887-.465.885-.468.884-.089.168"/><path fill="#ffb30f" stroke="#ffb30f" d="M761.009-515.677l-.742.67-.742.67-.743.67-.65.504.162-.987.162-.987.162-.986.162-.987.162-.987.737.19.878.48.878.479.386.537-.742.67-.07.064"/><path fill="#fff" stroke="transparent" d="M791-1241v5h-6v-10h6v5"/><text x="784.625" y="-1237.9" font-family="Times,serif" font-size="9">0</text></g><g class="node"><text x="732.513" y="-2131.2" font-family="Times,serif" font-size="12">echoOuterUDPCsum</text><text x="759.504" y="-2118.9" font-family="Times,serif" font-style="italic" font-size="9" fill="#888">L4Checksum</text><path fill="none" stroke="#000" d="M835.5-2128v16h-105v-32h105v16"/></g><g class="edge"><path fill="none" stroke="#ffb30f" d="M783-2111.88v110.477"/><path fill="#ffb30f" stroke="#ffb30f" d="M783.875-1998.6l-.33.943-.33.944-.331.281-.33-.944-.33-.944-.331-.944-.33-.944-.259-.892h3l.263.522-.33.944-.33.944-.032.09"/><path fill="#fff" stroke="transparent" d="M791-2083v5h-6v-10h6v5"/><text x="784.625" y="-2079.9" font-family="Times,serif" font-size="9">0</text></g><g class="node"><text x="762.339" y="-2226.2" font-family="Times,serif" font-size="12">ethSwap</text><text x="762.753" y="-2213.9" font-family="Times,serif" font-style="italic" font-size="9" fill="#888">MACSwap</text><path fill="none" stroke="#000" d="M814-2223v16h-62v-32h62v16"/></g><g class="edge"><path fill="none" stroke="#ffb30f" d="M783-2206.885v57.516"/><path fill="#ffb30f" stroke="#ffb30f" d="M783.875-2146.695l-.33.944-.33.944-.331.28-.33-.943-.33-.944-.331-.944-.33-.944-.259-.893h3l.263.523-.33.944-.33.944-.032.09"/><path fill="#fff" stroke="transparent" d="M791-2173v5h-6v-10h6v5"/><text x="784.625" y="-2169.9" font-family="Times,serif" font-size="9">0</text></g><g class="node"><text x="319.689" y="-1721.2" font-family="Times,serif" font-size="12">etherTrimDecap</text><text x="333.269" y="-1708.9" font-family="Times,serif" font-style="italic" font-size="9" fill="#888">GenericDecap</text><path fill="none" stroke="#000" d="M400-1718v16h-82v-32h82v16"/></g><g class="node"><text x="353.011" y="-1631.2" font-family="Times,serif" font-size="12">gtpuDecap</text><text x="358.51" y="-1618.9" font-family="Times,serif" font-style="italic" font-size="9" fill="#888">GtpuDecap</text><path fill="none" stroke="#000" d="M410-1628v16h-62v-32h62v16"/></g><g class="edge"><path fill="none" stroke="#ffb30f" d="M362.576-1701.91l.217.976.216.977.217.976.217.976.217.976.217.976.217.976.217.977.217.976.217.976.217.976.217.976.217.977.217.976.217.976.216.976.217.976.217.977.217.976.217.976.217.976.217.976.217.976.217.977.217.976.217.976.217.976.217.976.217.977.217.976.216.976.217.976.217.976.217.977.217.976.217.976.217.976.217.976.217.976.217.977.217.976.217.976.217.976.217.976.216.977.217.976.217.976.217.976.217.976.217.977.217.976.217.976.217.976.153.688"/><path fill="#ffb30f" stroke="#ffb30f" d="M375.7-1646.885l-.118.993-.118.993-.261.346-.527-.85-.528-.85-.527-.849-.527-.85-.447-.815.977-.217.976-.217.976-.217.37.453-.117.993-.118.993-.011.094"/><path fill="#fff" stroke="transparent" d="M411-1673v5h-38v-10h38v5h0"/><text x="372.875" y="-1669.9" font-family="Times,serif" font-size="9">1,079,772</text></g><g class="node"><text x="340.519" y="-1244.2" font-family="Times,serif" font-size="12">etherTrimEncap</text><text x="353.769" y="-1231.9" font-family="Times,serif" font-style="italic" font-size="9" fill="#888">GenericDecap</text><path fill="none" stroke="#000" d="M419.5-1241v16h-81v-32h81v16"/></g><g class="node"><text x="396.34" y="-1153.7" font-family="Times,serif" font-size="12">gtpuEncap</text><text x="401.757" y="-1141.4" font-family="Times,serif" font-style="italic" font-size="9" fill="#888">GtpuEncap</text><path fill="#01295f" stroke="transparent" d="M422-1132v3l-.5.5h-29l-.5-.5v-6l.5-.5h29l.5.5v3h0"/><text x="405.5" y="-1130.1" font-family="Times,serif" font-size="6" fill="#fff">0</text><path fill="#01295f" stroke="transparent" d="M452-1132v3l-.5.5h-29l-.5-.5v-6l.5-.5h29l.5.5v3h0"/><text x="435.5" y="-1130.1" font-family="Times,serif" font-size="6" fill="#fff">1</text><path fill="none" stroke="#000" d="M453-1147.5v19l-.5.5h-61l-.5-.5v-38l.5-.5h61l.5.5v19"/></g><g class="edge"><path fill="none" stroke="#ffb30f" d="M386.49-1224.714l.418.91.418.908.417.908.418.909.418.908.418.909.418.908.418.909.417.908.418.909.418.908.418.909.418.908.418.909.417.908.418.909.418.908.418.909.418.908.417.909.418.909.418.908.418.909.418.908.418.909.417.908.418.909.418.908.418.909.418.908.418.909.417.908.418.909.418.908.418.909.418.909.418.908.417.909.418.908.418.909.418.908.418.909.418.908.417.909.418.908.418.909.418.908.418.909.417.908.418.909.418.908.418.909.418.908.418.909.417.908.418.91.418.908.418.908.136.296"/><path fill="#ffb30f" stroke="#ffb30f" d="M412.707-1169.802l.094.996.094.995-.183.394-.694-.72-.695-.72-.694-.719-.695-.72-.608-.703.909-.418.908-.417.909-.418.457.365.094.995.095.996.009.094"/><path fill="#fff" stroke="transparent" d="M442-1196v5h-38v-10h38v5h0"/><text x="403.875" y="-1192.9" font-family="Times,serif" font-size="9">8,639,245</text></g><g class="node"><text x="480.511" y="-696.7" font-family="Times,serif" font-size="12">executeFAR</text><text x="501.997" y="-684.4" font-family="Times,serif" font-style="italic" font-size="9" fill="#888">Split</text><path fill="#01295f" stroke="transparent" d="M496-675v3l-.5.5h-15l-.5-.5v-6l.5-.5h15l.5.5v3h0"/><text x="486.5" y="-673.1" font-family="Times,serif" font-size="6" fill="#fff">0</text><path fill="#01295f" stroke="transparent" d="M511-675v3l-.5.5h-14l-.5-.5v-6l.5-.5h14l.5.5v3h0"/><text x="502" y="-673.1" font-family="Times,serif" font-size="6" fill="#fff">1</text><path fill="#01295f" stroke="transparent" d="M526-675v3l-.5.5h-14l-.5-.5v-6l.5-.5h14l.5.5v3h0"/><text x="517" y="-673.1" font-family="Times,serif" font-size="6" fill="#fff">2</text><path fill="#01295f" stroke="transparent" d="M541-675v3l-.5.5h-14l-.5-.5v-6l.5-.5h14l.5.5v3h0"/><text x="532" y="-673.1" font-family="Times,serif" font-size="6" fill="#fff">4</text><path fill="none" stroke="#000" d="M541.5-690.5v19l-.5.5h-62l-.5-.5v-38l.5-.5h62l.5.5v19h0"/></g><g class="node"><text x="599.013" y="-595.2" font-family="Times,serif" font-size="12">farDrop</text><text x="609.748" y="-582.9" font-family="Times,serif" font-style="italic" font-size="9" fill="#888">Sink</text><path fill="none" stroke="#000" d="M649-592v16h-62v-32h62v16"/></g><g class="edge"><path fill="none" stroke="#ffb30f" d="M519-671.5l.021 1 .068.997.12.993.178.984.246.969.318.948.396.917.477.879.558.83.633.773.702.712.76.65.806.59.845.535.874.487.896.443.912.409.925.38.934.356.942.338.945.326.948.318.95.312.95.312.95.314.947.32.945.327.942.337.936.35.93.366.925.383.915.402.906.423.896.445.884.468.87.493.855.519.838.544.821.571.802.598.786.618.785.62.784.62.785.62.783.622.783.622.783.622.782.623.781.624.781.624.781.625.781.625.78.626.78.627.779.626.778.627.779.628.778.628.778.629.777.629.777.63.776.63.777.63.776.63.775.632.776.631.775.632.775.632.774.633.774.633.774.633.774.634.773.634.773.635.773.634.772.636.772.635.772.635.772.637.771.636.771.637.771.636.77.638.771.638.77.637.77.638.77.64.768.639.77.639.768.64.77.638.769.64.768.64.768.64.767.641.768.641.767.641.768.642.767.64.385.322"/><path fill="#ffb30f" stroke="#ffb30f" d="M597.512-610.492l.51.86.512.86.002.433-.935-.354-.935-.353-.936-.353-.935-.354-.851-.375.643-.766.642-.767.643-.766.57.134.51.86.511.86.049.081"/><path fill="#fff" stroke="transparent" d="M575-642v5h-6v-10h6v5"/><text x="568.625" y="-638.9" font-family="Times,serif" font-size="9">0</text></g><g class="node"><text x="685.841" y="-595.2" font-family="Times,serif" font-size="12">farNotifyCP</text><text x="707.248" y="-582.9" font-family="Times,serif" font-style="italic" font-size="9" fill="#888">Sink</text><path fill="none" stroke="#000" d="M746.5-592v16h-63v-32h63v16"/></g><g class="edge"><path fill="none" stroke="#ffb30f" d="M534-671.5l.654.726.835.55.865.501.88.476.887.46.894.449.898.44.902.432.904.427.906.422.909.419.91.414.911.412.913.408.913.407.915.403.916.402.916.401.918.398.917.398.919.394.919.395.92.393.92.391.92.392.921.388.921.39.922.387.923.386.922.387.923.385.923.384.923.384.924.383.924.382.924.382.925.381.925.38.925.381.925.38.925.378.926.38.926.377.926.377.926.378.927.375.926.376.927.375.927.376.927.375.927.376.927.374.928.373.927.374.928.373.928.373.928.373.928.373.928.371.928.372.929.371.928.372.929.371.928.371.93.37.929.37.929.37.929.37.929.37.93.369.928.37.93.367.93.369.93.368.93.368.929.369.93.368.93.367.93.367.93.367.93.367.93.367.93.367.931.367.931.366.93.365.932.365.93.366.931.365.931.366.931.365.93.366.932.365.93.366.931.365.931.366.931.364.932.364.931.364.932.364.931.364.932.364.931.364.931.363.932.364.931.364.932.364.931.364.932.363.932.363.932.363.932.363.931.362.932.363.932.363.932.363.932.362.932.363.932.363.932.362.932.363.932.362.932.362.932.363.932.362.932.363.932.362.932.362.932.363.932.362.932.362.932.363.932.362.932.362.932.363.932.362.932.364.931.364.931.365.93.366.931.366.93.37.923.384.907.42.907.421.906.425.905.425.904.428.903.429.902.43.902.433.9.435.9.435.9.437.899.44.898.44.897.44.897.443.234.116"/><path fill="#ffb30f" stroke="#ffb30f" d="M682.495-610.017l.697.717.697.718.103.42-.992-.126-.992-.126-.992-.126-.992-.126-.914-.167.447-.895.446-.895.447-.894.585-.002.697.717.697.717.066.068"/><path fill="#fff" stroke="transparent" d="M626-642v5h-6v-10h6v5"/><text x="619.625" y="-638.9" font-family="Times,serif" font-size="9">0</text></g><g class="node"><text x="455.506" y="-600.2" font-family="Times,serif" font-size="12">postDLQoSCounter</text><text x="489.003" y="-587.9" font-family="Times,serif" font-style="italic" font-size="9" fill="#888">Counter</text><text x="485.377" y="-574.9" font-family="Times,serif" font-size="9">0 sessions</text><path fill="none" stroke="#000" d="M552.5-592v21h-99v-42h99v21h0"/></g><g class="edge"><path fill="none" stroke="#ffb30f" d="M503-671.5v53.172"/><path fill="#ffb30f" stroke="#ffb30f" d="M503.875-615.758l-.33.944-.33.944-.331.28-.33-.944-.33-.943-.331-.944-.33-.944-.259-.893h3l.263.523-.33.944-.33.944-.032.089"/><path fill="#fff" stroke="transparent" d="M543-642v5h-38v-10h38v5h0"/><text x="504.875" y="-638.9" font-family="Times,serif" font-size="9">8,639,245</text></g><g class="node"><text x="322.506" y="-600.2" font-family="Times,serif" font-size="12">postULQoSCounter</text><text x="356.003" y="-587.9" font-family="Times,serif" font-style="italic" font-size="9" fill="#888">Counter</text><text x="352.377" y="-574.9" font-family="Times,serif" font-size="9">0 sessions</text><path fill="none" stroke="#000" d="M419.5-592v21h-99v-42h99v21h0"/></g><g class="edge"><path fill="none" stroke="#ffb30f" d="M488-671.5l-.692.709-.78.624-.797.606-.802.596-.808.59-.81.585-.814.582-.815.58-.817.576-.818.575-.82.573-.82.573-.82.57-.823.57-.822.57-.823.567-.823.567-.824.567-.825.566-.825.565-.825.565-.826.563-.826.564-.826.564-.827.562-.827.562-.827.563-.828.56-.828.561-.828.56-.828.561-.828.56-.828.561-.829.56-.829.56-.83.558-.829.559-.829.559-.83.558-.829.56-.83.558-.829.558-.83.557-.83.557-.831.557-.83.558-.83.557-.831.557-.83.557-.832.556-.83.556-.832.556-.831.556-.831.556-.832.556-.83.556-.832.556-.832.556-.832.555-.831.555-.832.555-.832.554-.832.555-.832.555-.832.555-.832.555-.832.554-.833.554-.832.554-.833.555-.832.554-.832.554-.833.554-.832.554-.833.553-.833.554-.833.553-.833.553-.833.554-.833.553-.833.554-.833.553-.833.553-.834.552-.833.553-.834.552-.833.553-.834.552-.833.553-.834.552-.833.553-.834.552-.833.553-.834.552-.833.553-.834.552-.833.553-.834.552-.476.316"/><path fill="#ffb30f" stroke="#ffb30f" d="M406.532-615.167l.508.817-.97.245-.969.245-.97.246-.969.245-.97.245.183-.517.605-.796.605-.796.605-.796.605-.797.581-.088.552.834.552.834.052.079"/><path fill="#fff" stroke="transparent" d="M494-642v5h-38v-10h38v5h0"/><text x="455.875" y="-638.9" font-family="Times,serif" font-size="9">1,080,719</text></g><g class="node"><text x="353.176" y="-1350.7" font-family="Times,serif" font-size="12">farLookup</text><text x="356.76" y="-1338.4" font-family="Times,serif" font-style="italic" font-size="9" fill="#888">ExactMatch</text><text x="348.507" y="-1325.4" font-family="Times,serif" font-size="9">2 fields, 20 rules</text><path fill="#01295f" stroke="transparent" d="M369-1319v3l-.5.5h-20l-.5-.5v-6l.5-.5h20l.5.5v3"/><text x="357" y="-1317.1" font-family="Times,serif" font-size="6" fill="#fff">0</text><path fill="#01295f" stroke="transparent" d="M389-1319v3l-.5.5h-19l-.5-.5v-6l.5-.5h19l.5.5v3h0"/><text x="377.5" y="-1317.1" font-family="Times,serif" font-size="6" fill="#fff">1</text><path fill="#01295f" stroke="transparent" d="M409-1319v3l-.5.5h-19l-.5-.5v-6l.5-.5h19l.5.5v3h0"/><text x="397.5" y="-1317.1" font-family="Times,serif" font-size="6" fill="#fff">2</text><path fill="none" stroke="#000" d="M409.5-1339.5v24l-.5.5h-62l-.5-.5v-48l.5-.5h62l.5.5v24h0"/></g><g class="edge"><path fill="none" stroke="#ffb30f" d="M379-1315.5v52.998"/><path fill="#ffb30f" stroke="#ffb30f" d="M379.875-1259.777l-.33.944-.33.944-.331.28-.33-.943-.33-.944-.331-.944-.33-.944-.259-.893h3l.263.523-.33.944-.33.943-.032.09"/><path fill="#fff" stroke="transparent" d="M419-1286v5h-38v-10h38v5h0"/><text x="380.875" y="-1282.9" font-family="Times,serif" font-size="9">8,639,245</text></g><g class="node"><text x="455.843" y="-1244.2" font-family="Times,serif" font-size="12">farLookupFail</text><text x="482.248" y="-1231.9" font-family="Times,serif" font-style="italic" font-size="9" fill="#888">Sink</text><path fill="none" stroke="#000" d="M526.5-1241v16h-73v-32h73v16h0"/></g><g class="edge"><path fill="none" stroke="#ffb30f" d="M399-1315.5l.65.751.729.684.742.67.75.661.754.657.758.653.759.651.762.648.762.647.764.645.765.644.766.642.767.643.768.64.768.64.768.64.77.639.77.638.77.638.771.637.772.636.77.636.772.637.771.637.773.634.773.635.773.634.773.635.773.634.773.635.774.633.774.633.774.633.774.633.775.633.774.632.774.633.775.632.776.632.775.631.775.632.776.631.775.632.775.632.777.63.776.63.777.63.776.63.777.63.776.63.776.63.777.63.776.631.777.63.776.63.777.63.776.63.777.63.777.63.778.629.777.629.778.628.777.629.778.629.778.628.777.63.778.628.778.629.777.628.778.63.777.628.778.629.778.628.778.628.779.627.778.628.779.628.778.627.779.628.778.628.779.627.778.628.779.628.778.628.779.627.778.628.258.208"/><path fill="#ffb30f" stroke="#ffb30f" d="M468.405-1259.467l.529.85.528.848.011.434-.942-.335-.943-.334-.942-.335-.942-.334-.858-.359.627-.779.627-.779.627-.779.572.123.528.85.528.848.05.081"/><path fill="#fff" stroke="transparent" d="M455.5-1286v5h-11v-10h11v5"/><text x="444.375" y="-1282.9" font-family="Times,serif" font-size="9">83</text></g><g class="node"><text x="487.684" y="-787.2" font-family="Times,serif" font-size="12">farMerge</text><text x="498.257" y="-774.9" font-family="Times,serif" font-style="italic" font-size="9" fill="#888">Merge</text><path fill="none" stroke="#000" d="M541-784v16h-62v-32h62v16"/></g><g class="edge"><path fill="none" stroke="#ffb30f" d="M358-1315.5l-.011 1-.034 1-.058.998-.081.996-.108.994-.133.991-.16.987-.19.982-.216.976-.247.97-.275.96-.307.953-.336.941-.366.93-.397.919-.426.904-.456.89-.485.875-.512.858-.54.842-.566.824-.59.807-.615.79-.637.77-.658.753-.678.735-.696.718-.713.7-.73.685-.744.668-.758.652-.77.638-.782.623-.792.61-.801.599-.81.586-.819.575-.824.566-.832.556-.836.547-.842.54-.846.534-.85.527-.852.523-.855.518-.858.514-.859.512-.86.51-.86.51-.86.51-.861.509-.86.51-.86.512-.857.515-.854.52-.852.523-.849.528-.845.536-.84.541-.836.55-.83.558-.822.568-.817.577-.808.59-.8.6-.789.614-.78.627-.766.64-.755.657-.741.671-.726.688-.71.705-.691.722-.674.74-.653.756-.631.776-.609.793-.585.81-.56.83-.533.845-.506.863-.478.878-.45.894-.419.907-.39.921-.358.933-.33.944-.298.955-.27.963-.238.97-.21.978-.183.983-.154.989-.127.991-.102.995-.075.997-.052.999-.028 1-.007 1v366l.002 1 .04.998.094.996.146.989.197.98.246.97.291.956.335.942.375.927.413.91.447.895.48.877.51.86.537.844.562.827.585.81.607.796.627.779.645.764.661.75.677.736.692.722.705.71.717.696.729.685.739.674.75.662.758.651.767.641.776.631.783.623.79.611.798.604.804.595.81.587.815.579.82.571.827.563.83.557.836.55.84.542.844.537.848.53.852.524.855.518.859.512.862.507.865.5.869.497.87.491.875.486.876.48.88.478.881.471.884.468.887.463.888.459.89.455.893.45.895.447.896.443.899.44.9.435.902.432.903.428.905.426.907.422.908.418.91.415.911.412.913.41.914.405.914.404.917.4.918.397.918.395.92.392.921.39.923.386.923.385.924.381.925.38.927.376.927.374.928.373.93.37.93.368.93.364.932.363.933.36.933.36.934.357.935.354.936.353.937.35.937.35.938.346.938.345.94.342.94.342.94.339.942.337.942.336.943.334.943.332.943.33.945.33.945.327.945.326.946.323.947.323.947.32.948.32.948.317.949.317.949.314.95.314.95.311.95.31.951.31.952.307.952.306.952.305.953.304.954.301.953.301.954.3.955.298.955.296.955.296.956.294.956.293.957.292.956.29.958.29.957.288.958.287.958.286.959.285.96.283.958.282.96.281.96.28.96.28.961.277.96.277.962.275.962.275.962.273.962.273.962.271.963.27.963.269.964.268.963.268.964.266.964.265.965.264.964.265.965.261.966.26.965.262.966.26.966.257.966.258.967.257.967.255.967.255.967.254.967.253.968.251.968.251.968.251.969.249.969.248.968.248.97.246.969.245.97.246.97.244.97.242.97.243.97.242.97.24.971.239.971.24.972.237.971.237.972.236.972.236.972.234.972.234.973.233.973.231.972.232.973.23.974.23.973.229.335.078"/><path fill="#ffb30f" stroke="#ffb30f" d="M477.077-791.797l.844.536.845.535-.79.156-.993.108-.994.109-.994.108-.995.109-.272-.532.226-.974.226-.974.282-.836.845.535.845.535.845.535.08.05"/><path fill="#fff" stroke="transparent" d="M342-1054v5h-38v-10h38v5h0"/><text x="303.875" y="-1050.9" font-family="Times,serif" font-size="9">1,080,719</text></g><g class="edge"><path fill="none" stroke="#ffb30f" d="M510-767.714v52.132"/><path fill="#ffb30f" stroke="#ffb30f" d="M510.875-712.665l-.33.944-.33.944-.331.28-.33-.943-.33-.944-.331-.944-.33-.944-.259-.893h3l.263.523-.33.944-.33.944-.032.09"/><path fill="#fff" stroke="transparent" d="M550-739v5h-38v-10h38v5h0"/><text x="511.875" y="-735.9" font-family="Times,serif" font-size="9">9,719,964</text></g><g class="node"><text x="348.674" y="-1541.2" font-family="Times,serif" font-size="12">sgiEtherAdd</text><text x="353.516" y="-1528.9" font-family="Times,serif" font-style="italic" font-size="9" fill="#888">GenericEncap</text><path fill="none" stroke="#000" d="M411-1538v16h-64v-32h64v16"/></g><g class="edge"><path fill="none" stroke="#ffb30f" d="M379-1611.91v52.426"/><path fill="#ffb30f" stroke="#ffb30f" d="M379.875-1556.754l-.33.943-.33.944-.331.281-.33-.944-.33-.944-.331-.943-.33-.944-.26-.893h3l.264.522-.33.944-.33.944-.032.09"/><path fill="#fff" stroke="transparent" d="M419-1583v5h-38v-10h38v5h0"/><text x="380.875" y="-1579.9" font-family="Times,serif" font-size="9">1,079,772</text></g><g class="node"><text x="690.004" y="-2329.2" font-family="Times,serif" font-size="12">gtpuEcho</text><text x="694.754" y="-2316.9" font-family="Times,serif" font-style="italic" font-size="9" fill="#888">GtpuEcho</text><path fill="#01295f" stroke="transparent" d="M713-2307.5v3l-.5.5h-29l-.5-.5v-6l.5-.5h29l.5.5v3h0"/><text x="696.5" y="-2305.6" font-family="Times,serif" font-size="6" fill="#fff">0</text><path fill="#01295f" stroke="transparent" d="M743-2307.5v3l-.5.5h-29l-.5-.5v-6l.5-.5h29l.5.5v3h0"/><text x="726.5" y="-2305.6" font-family="Times,serif" font-size="6" fill="#fff">1</text><path fill="none" stroke="#000" d="M744-2323v19l-.5.5h-61l-.5-.5v-38l.5-.5h61l.5.5v19"/></g><g class="edge"><path fill="none" stroke="#ffb30f" d="M698-2304l-.005 1-.017 1-.026 1-.037.999-.046.999-.056.998-.066.998-.074.997-.083.997-.093.995-.1.995-.109.994-.117.994-.125.992-.132.991-.14.99-.147.99-.155.987-.16.987-.17.986-.174.984-.181.984-.188.982-.194.981-.2.98-.207.978-.212.977-.218.976-.223.975-.23.974-.233.972-.24.97-.245.97-.25.968-.255.967-.26.966-.266.964-.27.963-.274.962-.279.96-.283.959-.288.957-.293.957-.297.954-.302.954-.304.952-.311.95-.312.95-.32.949-.32.947-.326.945-.329.944-.333.943-.337.942-.34.94-.346.938-.347.938-.353.936-.355.935-.359.933-.363.932-.365.93-.017.046"/><path fill="#ffb30f" stroke="#ffb30f" d="M684.74-2241.709l-.663.75-.661.75-.662.749-.327-.074.05-1 .05-.998.05-.999.05-.999.202-.759.926.377.927.377.926.377-.144.628-.662.75-.063.071"/><path fill="#fff" stroke="transparent" d="M704-2273v5h-6v-10h6v5"/><text x="697.625" y="-2269.9" font-family="Times,serif" font-size="9">0</text></g><g class="edge"><path fill="none" stroke="#ffb30f" d="M728-2304l.01 1 .03 1 .047.998.066.998.085.996.104.995.121.993.139.99.156.988.173.985.19.981.206.979.222.975.237.971.253.968.269.963.283.959.296.955.31.95.325.946.338.942.35.936.364.932.374.927.388.922.399.917.41.912.42.907.432.902.443.897.452.892.462.887.472.881.481.877.49.871.5.867.507.862.517.856.524.851.533.847.54.841.548.837.554.832.562.827.57.822.575.818.583.812.59.808.596.803.602.798.608.795.613.789.62.785.625.78.63.776.637.772.641.767.647.763.652.758.657.754.661.75.667.746.67.741.676.737.68.734.684.729.689.725.693.72.697.718.701.713.444.448"/><path fill="#ffb30f" stroke="#ffb30f" d="M762.275-2241.528l.445.896.445.895-.029.433-.906-.422-.907-.423-.906-.423-.906-.422-.82-.438.697-.716.699-.716.698-.716.558.176.445.896.445.895.042.085"/><path fill="#fff" stroke="transparent" d="M747-2273v5h-6v-10h6v5"/><text x="740.625" y="-2269.9" font-family="Times,serif" font-size="9">0</text></g><g class="node"><text x="372.507" y="-1057.2" font-family="Times,serif" font-size="12">gtpuEncapFail</text><text x="399.248" y="-1044.9" font-family="Times,serif" font-style="italic" font-size="9" fill="#888">Sink</text><path fill="none" stroke="#000" d="M443.5-1054v16h-73v-32h73v16h0"/></g><g class="edge"><path fill="none" stroke="#ffb30f" d="M407-1128.5v52.998"/><path fill="#ffb30f" stroke="#ffb30f" d="M407.875-1072.777l-.33.944-.33.944-.331.28-.33-.943-.33-.944-.331-.944-.33-.944-.259-.893h3l.263.523-.33.944-.33.943-.032.09"/><path fill="#fff" stroke="transparent" d="M415-1099v5h-6v-10h6v5"/><text x="408.625" y="-1095.9" font-family="Times,serif" font-size="9">0</text></g><g class="node"><text x="479.842" y="-1057.2" font-family="Times,serif" font-size="12">s1uEtherAdd</text><text x="486.016" y="-1044.9" font-family="Times,serif" font-style="italic" font-size="9" fill="#888">GenericEncap</text><path fill="none" stroke="#000" d="M544.5-1054v16h-67v-32h67v16"/></g><g class="edge"><path fill="none" stroke="#ffb30f" d="M437-1128.5l.012 1 .034 1 .056.998.08.997.101.994.125.992.147.99.168.985.19.982.213.977.233.973.253.967.275.961.295.956.314.95.333.942.351.936.37.93.388.921.405.914.422.907.438.899.454.89.47.884.483.875.499.867.512.858.526.85.54.843.55.835.564.826.576.817.587.81.598.801.608.794.619.786.628.777.639.77.647.762.656.755.665.747.674.739.681.732.69.724.696.718.704.71.71.703.719.696.724.69.731.682.737.676.743.669.75.663.754.656.76.65.765.644.77.637.776.632.78.625.785.62.79.613.793.609.798.602.803.597.806.591.81.586.815.58.818.576.822.57.825.564.285.194"/><path fill="#ffb30f" stroke="#ffb30f" d="M478.005-1072.135l.608.794.61.793.053.43-.97-.24-.971-.24-.97-.241-.971-.24-.89-.273.548-.837.548-.837.548-.836.581.066.609.793.609.793.058.075"/><path fill="#fff" stroke="transparent" d="M492-1099v5h-38v-10h38v5h0"/><text x="453.875" y="-1095.9" font-family="Times,serif" font-size="9">8,639,245</text></g><g class="node"><text x="254.008" y="-2041.2" font-family="Times,serif" font-size="12">linkMerge</text><text x="267.257" y="-2028.9" font-family="Times,serif" font-style="italic" font-size="9" fill="#888">Merge</text><path fill="none" stroke="#000" d="M310-2038v16h-62v-32h62v16"/></g><g class="node"><text x="258.34" y="-1924.7" font-family="Times,serif" font-size="12">pktParse</text><text x="258.758" y="-1912.4" font-family="Times,serif" font-style="italic" font-size="9" fill="#888">GtpuParser</text><path fill="#01295f" stroke="transparent" d="M279-1903v3l-.5.5h-29l-.5-.5v-6l.5-.5h29l.5.5v3h0"/><text x="262.5" y="-1901.1" font-family="Times,serif" font-size="6" fill="#fff">0</text><path fill="#01295f" stroke="transparent" d="M309-1903v3l-.5.5h-29l-.5-.5v-6l.5-.5h29l.5.5v3h0"/><text x="292.5" y="-1901.1" font-family="Times,serif" font-size="6" fill="#fff">1</text><path fill="none" stroke="#000" d="M310-1918.5v19l-.5.5h-61l-.5-.5v-38l.5-.5h61l.5.5v19"/></g><g class="edge"><path fill="none" stroke="#ffb30f" d="M279-2021.884v78.404"/><path fill="#ffb30f" stroke="#ffb30f" d="M279.875-1940.83l-.33.945-.33.943-.331.281-.33-.944-.33-.944-.331-.944-.33-.943-.259-.893h3l.263.522-.33.944-.33.944-.032.09"/><path fill="#fff" stroke="transparent" d="M319-1980v5h-38v-10h38v5h0"/><text x="280.875" y="-1976.9" font-family="Times,serif" font-size="9">9,753,584</text></g><g class="node"><text x="479.837" y="-877.2" font-family="Times,serif" font-size="12">outerIPCsum</text><text x="488.504" y="-864.9" font-family="Times,serif" font-style="italic" font-size="9" fill="#888">IPChecksum</text><path fill="none" stroke="#000" d="M544.5-874v16h-67v-32h67v16"/></g><g class="edge"><path fill="none" stroke="#ffb30f" d="M510.821-857.91l-.01 1-.012 1-.011 1-.011 1-.011 1-.011 1-.012 1-.01 1-.012 1-.01 1-.012 1-.011 1-.011 1-.011 1-.011 1-.012 1-.01 1-.012 1-.01 1-.012.999-.011 1-.011 1-.011 1-.011 1-.012 1-.01 1-.012 1-.01 1-.012 1-.011 1-.011 1-.011 1-.011 1-.012 1-.01 1-.012.999-.01 1-.012 1-.011 1-.011 1-.011 1-.011 1-.012 1-.01 1-.012 1-.01 1-.012 1-.011 1-.011 1-.011 1-.011.999-.012 1-.004.43"/><path fill="#ffb30f" stroke="#ffb30f" d="M511.09-802.764l-.34.94-.341.94-.334.317-.32-.948-.32-.947-.32-.948-.32-.947-.276-.916 1 .011 1 .011 1 .011.285.507-.34.94-.341.94-.033.09"/><path fill="#fff" stroke="transparent" d="M551-829v5h-38v-10h38v5h0"/><text x="512.875" y="-825.9" font-family="Times,serif" font-size="9">8,639,245</text></g><g class="node"><text x="472.671" y="-967.2" font-family="Times,serif" font-size="12">outerUDPCsum</text><text x="487.004" y="-954.9" font-family="Times,serif" font-style="italic" font-size="9" fill="#888">L4Checksum</text><path fill="none" stroke="#000" d="M551-964v16h-80v-32h80v16h0"/></g><g class="edge"><path fill="none" stroke="#ffb30f" d="M511-947.91v52.426"/><path fill="#ffb30f" stroke="#ffb30f" d="M511.875-892.754l-.33.944-.33.943-.331.281-.33-.944-.33-.944-.331-.943-.33-.944-.26-.893h3l.264.522-.33.944-.33.944-.032.09"/><path fill="#fff" stroke="transparent" d="M551-919v5h-38v-10h38v5h0"/><text x="512.875" y="-915.9" font-family="Times,serif" font-size="9">8,639,245</text></g><g class="node"><text x="331.837" y="-1827.7" font-family="Times,serif" font-size="12">pdrLookup</text><text x="330.262" y="-1815.4" font-family="Times,serif" font-style="italic" font-size="9" fill="#888">WildcardMatch</text><text x="328.507" y="-1802.4" font-family="Times,serif" font-size="9">8 fields, 19 rules</text><path fill="#01295f" stroke="transparent" d="M349-1796v3l-.5.5h-20l-.5-.5v-6l.5-.5h20l.5.5v3"/><text x="337" y="-1794.1" font-family="Times,serif" font-size="6" fill="#fff">0</text><path fill="#01295f" stroke="transparent" d="M369-1796v3l-.5.5h-19l-.5-.5v-6l.5-.5h19l.5.5v3h0"/><text x="357.5" y="-1794.1" font-family="Times,serif" font-size="6" fill="#fff">1</text><path fill="#01295f" stroke="transparent" d="M389-1796v3l-.5.5h-19l-.5-.5v-6l.5-.5h19l.5.5v3h0"/><text x="377.5" y="-1794.1" font-family="Times,serif" font-size="6" fill="#fff">2</text><path fill="none" stroke="#000" d="M389.5-1816.5v24l-.5.5h-62l-.5-.5v-48l.5-.5h62l.5.5v24h0"/></g><g class="edge"><path fill="none" stroke="#ffb30f" d="M359-1792.5v52.998"/><path fill="#ffb30f" stroke="#ffb30f" d="M359.875-1736.777l-.33.944-.33.944-.331.28-.33-.943-.33-.944-.331-.944-.33-.944-.259-.893h3l.263.523-.33.944-.33.943-.032.09"/><path fill="#fff" stroke="transparent" d="M399-1763v5h-38v-10h38v5h0"/><text x="360.875" y="-1759.9" font-family="Times,serif" font-size="9">1,079,772</text></g><g class="node"><text x="436.504" y="-1721.2" font-family="Times,serif" font-size="12">pdrLookupFail</text><text x="464.248" y="-1708.9" font-family="Times,serif" font-style="italic" font-size="9" fill="#888">Sink</text><path fill="none" stroke="#000" d="M509.5-1718v16h-75v-32h75v16h0"/></g><g class="edge"><path fill="none" stroke="#ffb30f" d="M379-1792.5l.535.83.684.73.714.7.73.684.738.674.745.666.75.661.755.657.757.653.76.65.763.647.763.646.767.642.766.643.77.638.769.639.77.637.773.635.772.636.774.633.775.633.774.632.776.63.777.63.776.63.778.629.778.628.779.628.779.627.78.626.78.626.78.625.781.624.782.624.781.624.782.624.781.624.781.624.784.622.783.621.784.621.783.622.784.621.783.622.784.621.785.62.785.619.785.62.785.619.785.619.785.62.786.619.786.617.786.618.787.618.786.617.787.618.786.617.787.618.787.617.788.616.787.616.788.616.787.616.788.617.788.616.788.615.788.615.789.615.789.615.788.615.789.615.788.615.79.615.789.613.79.613.79.614.79.613.79.613.789.614.79.613.79.613.79.614.79.613.789.613.79.614.79.613.482.375"/><path fill="#ffb30f" stroke="#ffb30f" d="M449.456-1736.474l.544.84.544.838.02.433-.949-.316-.948-.317-.949-.316-.949-.317-.864-.342.612-.79.612-.791.612-.79.575.11.544.84.544.839.052.08"/><path fill="#fff" stroke="transparent" d="M452.5-1763v5h-27v-10h27v5h0"/><text x="425.5" y="-1759.9" font-family="Times,serif" font-size="9">33,537</text></g><g class="node"><text x="340.843" y="-1451.2" font-family="Times,serif" font-size="12">preQoSCounter</text><text x="364.003" y="-1438.9" font-family="Times,serif" font-style="italic" font-size="9" fill="#888">Counter</text><text x="360.377" y="-1425.9" font-family="Times,serif" font-size="9">0 sessions</text><path fill="none" stroke="#000" d="M417.5-1443v21h-79v-42h79v21h0"/></g><g class="edge"><path fill="none" stroke="#ffb30f" d="M338-1792.5l-.011 1-.035 1-.058.998-.082.996-.109.994-.134.991-.163.987-.19.981-.22.976-.25.968-.279.96-.31.951-.34.94-.371.929-.401.916-.433.901-.462.887-.49.871-.52.855-.547.837-.572.82-.599.8-.622.784-.644.764-.667.746-.686.727-.704.71-.722.692-.738.675-.753.658-.766.643-.779.627-.79.612-.8.6-.812.585-.818.574-.827.563-.834.552-.84.542-.845.534-.851.526-.855.518-.86.512-.861.507-.866.5-.867.499-.869.495-.871.49-.872.491-.87.49-.872.491-.872.49-.871.491-.87.494-.868.496-.865.501-.864.504-.86.51-.856.517-.852.524-.848.53-.841.54-.836.55-.83.558-.82.571-.813.583-.805.594-.793.608-.783.623-.77.638-.757.653-.743.67-.727.686-.71.705-.691.721-.673.74-.651.76-.63.776-.605.796-.581.814-.555.832-.528.849-.5.866-.47.882-.442.898-.41.911-.381.925-.35.936-.319.948-.289.957-.258.967-.229.973-.2.98-.17.985-.144.99-.116.993-.091.996-.065.997-.041 1-.018 1-.002 1v179l.004 1 .022.999.039 1 .057.998.074.997.093.995.11.994.128.992.145.99.163.986.18.984.198.98.214.977.23.973.249.969.264.964.28.96.296.955.312.95.327.945.342.94.358.934.37.929.386.922.4.917.412.91.428.905.439.898.452.892.465.885.476.88.489.872.5.866.511.86.523.852.533.846.543.84.553.832.564.827.572.82.583.812.59.807.6.8.61.793.616.787.626.78.633.775.64.768.649.761.655.755.663.75.67.742.676.737.682.73.689.725.695.719.702.713.707.707.713.701.718.696.724.69.729.684.734.68.739.673.744.668.75.662.752.658.759.652.762.647.767.643.77.636.776.632.778.628.783.622.787.617.79.613.794.608.798.603.801.598.804.594.808.59.811.585.814.58.818.576.82.573.824.567.826.563.828.56.833.555.834.55.837.548.84.542.842.54.845.535.847.53.344.215"/><path fill="#ffb30f" stroke="#ffb30f" d="M336.736-1463.922l.636.77.637.772.07.428-.98-.206-.978-.206-.978-.206-.979-.205-.898-.241.517-.856.518-.856.518-.855.583.045.637.771.636.771.06.074"/><path fill="#fff" stroke="transparent" d="M320-1628v5h-38v-10h38v5h0"/><text x="281.875" y="-1624.9" font-family="Times,serif" font-size="9">8,640,275</text></g><g class="edge"><path fill="none" stroke="#ffb30f" d="M264-1899.5l-.001 1-.002 1-.004 1-.004 1-.008 1-.008 1-.008 1-.009 1-.012 1-.013 1-.013 1-.012 1-.017 1-.017 1-.017.999-.017 1-.02 1-.022 1-.02 1-.021.999-.024 1-.025 1-.024 1-.025.999-.027 1-.028 1-.027.999-.028 1-.03.999-.031 1-.03.999-.032 1-.032.999-.034 1-.034.999-.033 1-.036.999-.036.999-.037 1-.036.999-.038.999-.04 1-.038.998-.039 1-.04.999-.042.999-.04.999-.042 1-.043.998-.044 1-.043.998-.044 1-.045.998-.046 1-.045.998-.048 1-.048.998-.048.999-.048.999-.048.999-.048.998-.02.421"/><path fill="#ffb30f" stroke="#ffb30f" d="M262.971-1835.257l-.378.925-.378.926-.354.446-.282-.96-.281-.96-.282-.959-.281-.96-.282-.959.944.008.998.051 1 .051.368.451-.378.926-.378.926-.036.088"/><path fill="#fff" stroke="transparent" d="M272-1870v5h-6v-10h6v5"/><text x="265.625" y="-1866.9" font-family="Times,serif" font-size="9">0</text></g><g class="edge"><path fill="none" stroke="#ffb30f" d="M294-1899.5l.01 1 .03 1 .048.998.068.998.087.996.106.994.125.993.143.99.16.986.18.984.196.98.213.978.23.973.247.969.263.965.28.96.294.955.309.951.324.946.34.941.352.936.367.93.38.925.393.92.405.914.418.908.43.903.442.897.454.891.464.886.475.88.486.874.495.869.506.862.516.857.524.851.534.846.543.84.552.834.56.828.568.823.576.818.584.812.59.806.6.801.605.796.613.79.62.785.625.78.633.774.639.77.645.764.65.76.657.753.662.75.668.744.674.74.678.734.684.73.688.724.694.72.698.717.703.71.708.707.19.19"/><path fill="#ffb30f" stroke="#ffb30f" d="M325.174-1842.544l.453.892.454.89-.026.434-.91-.414-.91-.414-.91-.414-.911-.414-.824-.43.691-.723.692-.723.691-.722.56.171.453.891.454.892.043.084"/><path fill="#fff" stroke="transparent" d="M347-1870v5h-38v-10h38v5h0"/><text x="308.875" y="-1866.9" font-family="Times,serif" font-size="9">9,753,584</text></g><g class="edge"><path fill="none" stroke="#ffb30f" d="M552.761-571.83l.927.376.927.376.926.376.927.375.927.376.927.376.926.375.927.376.927.376.927.375.926.376.927.376.927.375.927.376.926.375.927.376.927.376.927.375.927.376.926.376.927.375.927.376.927.376.926.375.927.376.927.376.927.375.926.376.927.376.927.375.927.376.926.376.927.375.927.376.927.376.926.375.927.376.927.376.927.375.926.376.927.376.927.375.927.376.926.376.927.375.927.376.927.376.926.375.927.376.927.376.927.375.926.376.927.376.927.375.927.376.926.376.927.375.927.376.927.376.927.375.926.376.927.376.927.375.927.376.926.376.927.375.927.376.927.376.926.375.927.376.927.376.927.375.926.376.927.375.927.376.927.376.926.375.927.376.927.376.927.375.926.376.927.376.927.375.927.376.926.376.927.375.927.376.927.376.926.375.927.376.927.376.927.375.927.376.926.376.927.375.927.376.927.376.926.375.927.376.927.376.927.375.926.376.927.376.927.375.927.376.926.376.927.375.927.376.927.376.926.375.927.376.927.376.927.375.926.376.927.376.927.375.927.376.926.376.927.375.927.376.927.376.927.375.926.376.927.376.927.375.927.376.926.376.927.375.927.376.927.376.926.375.927.376.927.375.927.376.926.376.927.375.927.376.927.376.926.375.927.376.927.376.927.375.926.376.927.376.927.375.927.376.926.376.927.375.927.376.927.376.926.375.927.376.927.376.927.375.926.376.927.376.927.375.927.376.926.376.927.375.927.376.927.376.927.375.926.376.927.376.927.375.927.376.926.376.927.375.728.295"/><path fill="#ffb30f" stroke="#ffb30f" d="M712.813-507.897l.75.661.751.66.136.412-.999-.048-.998-.048-1-.049-.998-.048-.925-.096.376-.927.375-.926.376-.927.584-.048.75.661.75.66.072.063"/><path fill="#fff" stroke="transparent" d="M680-542v5h-38v-10h38v5h0"/><text x="641.875" y="-538.9" font-family="Times,serif" font-size="9">8,639,245</text></g><g class="node"><text x="346.334" y="-499.7" font-family="Times,serif" font-size="12">sgiRoutes</text><text x="352.001" y="-487.4" font-family="Times,serif" font-style="italic" font-size="9" fill="#888">IPLookup</text><path fill="#01295f" stroke="transparent" d="M366-478v3l-.5.5h-25l-.5-.5v-6l.5-.5h25l.5.5v3h0"/><text x="351.5" y="-476.1" font-family="Times,serif" font-size="6" fill="#fff">0</text><path fill="#01295f" stroke="transparent" d="M400-478v3l-.5.5h-33l-.5-.5v-6l.5-.5h33l.5.5v3"/><text x="377" y="-476.1" font-family="Times,serif" font-size="6" fill="#fff">8191</text><path fill="none" stroke="#000" d="M401-493.5v19l-.5.5h-61l-.5-.5v-38l.5-.5h61l.5.5v19"/></g><g class="edge"><path fill="none" stroke="#ffb30f" d="M370-570.627v52.2"/><path fill="#ffb30f" stroke="#ffb30f" d="M370.875-515.657l-.33.943-.33.944-.331.281-.33-.944-.33-.944-.331-.944-.33-.943-.259-.893h3l.263.522-.33.944-.33.944-.032.09"/><path fill="#fff" stroke="transparent" d="M410-542v5h-38v-10h38v5h0"/><text x="371.875" y="-538.9" font-family="Times,serif" font-size="9">1,080,719</text></g><g class="edge"><path fill="none" stroke="#ffb30f" d="M378-1421.806v52.422"/><path fill="#ffb30f" stroke="#ffb30f" d="M378.875-1366.808l-.33.943-.33.944-.331.281-.33-.944-.33-.944-.331-.944-.33-.943-.259-.893h3l.263.522-.33.944-.33.944-.032.09"/><path fill="#fff" stroke="transparent" d="M418-1393v5h-38v-10h38v5h0"/><text x="379.875" y="-1389.9" font-family="Times,serif" font-size="9">9,720,047</text></g><g class="edge"><path fill="none" stroke="#ffb30f" d="M511-1037.91v52.426"/><path fill="#ffb30f" stroke="#ffb30f" d="M511.875-982.754l-.33.944-.33.943-.331.281-.33-.944-.33-.944-.331-.943-.33-.944-.26-.893h3l.264.522-.33.944-.33.944-.032.09"/><path fill="#fff" stroke="transparent" d="M551-1009v5h-38v-10h38v5h0"/><text x="512.875" y="-1005.9" font-family="Times,serif" font-size="9">8,639,245</text></g><g class="node"><text x="688.995" y="-2427.7" font-family="Times,serif" font-size="12">s1uFastBPF</text><text x="709.996" y="-2415.4" font-family="Times,serif" font-style="italic" font-size="9" fill="#888">BPF</text><path fill="#01295f" stroke="transparent" d="M705-2406v3l-.5.5h-16l-.5-.5v-6l.5-.5h16l.5.5v3"/><text x="695" y="-2404.1" font-family="Times,serif" font-size="6" fill="#fff">0</text><path fill="#01295f" stroke="transparent" d="M722-2406v3l-.5.5h-16l-.5-.5v-6l.5-.5h16l.5.5v3"/><text x="712" y="-2404.1" font-family="Times,serif" font-size="6" fill="#fff">1</text><path fill="#01295f" stroke="transparent" d="M748-2406v3l-.5.5h-25l-.5-.5v-6l.5-.5h25l.5.5v3h0"/><text x="729" y="-2404.1" font-family="Times,serif" font-size="6" fill="#fff">8191</text><path fill="none" stroke="#000" d="M749-2421.5v19l-.5.5h-61l-.5-.5v-38l.5-.5h61l.5.5v19"/></g><g class="edge"><path fill="none" stroke="#ffb30f" d="M713-2402.5v54.78"/><path fill="#ffb30f" stroke="#ffb30f" d="M713.875-2345.103l-.33.944-.33.944-.331.28-.33-.943-.33-.944-.331-.944-.33-.944-.259-.893h3l.263.523-.33.944-.33.944-.032.09"/><path fill="#fff" stroke="transparent" d="M722-2373v5h-6v-10h6v5"/><text x="715.625" y="-2369.9" font-family="Times,serif" font-size="9">0</text></g><g class="node"><text x="827.834" y="-2331.2" font-family="Times,serif" font-size="12">s1uQSlowPO</text><text x="848.756" y="-2318.9" font-family="Times,serif" font-style="italic" font-size="9" fill="#888">Queue</text><text x="848" y="-2305.9" font-family="Times,serif" font-size="9">0/1024</text><path fill="none" stroke="#000" d="M894.5-2323v21h-69v-42h69v21h0"/></g><g class="edge"><path fill="none" stroke="#ffb30f" d="M735-2402.5l.01 1 .03 1 .048.998.069.998.089.996.109.994.129.992.15.988.17.985.192.982.211.977.232.973.252.968.273.962.292.956.313.95.332.943.352.936.37.929.39.921.408.913.426.904.444.896.461.888.479.878.495.869.51.86.527.85.543.84.556.83.571.821.586.81.599.801.612.791.624.781.637.771.649.761.66.751.672.74.682.732.691.723.703.711.711.703.721.693.73.684.739.674.746.665.755.656.763.647.77.638.776.63.784.62.79.613.797.605.803.596.809.588.814.58.82.572.826.565.83.557.836.549.84.542.845.535.85.527.854.52.858.514.862.507.866.5.87.494.872.487.877.481.88.475.884.468.886.463.89.457.893.45.896.445.898.44.901.433.904.428.906.422.909.418.91.412.914.407.916.402.918.396.92.392.922.387.924.382.926.378.928.373.93.368.931.363.934.36.935.354.937.35.938.346.94.342.94.337.944.332.944.33.946.324.947.323.949.315.949.315.951.308.952.307.954.3.954.299.956.294.957.29.958.288.959.283.96.28.96.276.962.274.964.268.963.267.966.262.661.18"/><path fill="#ffb30f" stroke="#ffb30f" d="M823.31-2330.824l.83.556.832.557-.538.202-.996.083-.997.084-.996.083-.997.084-.433-.392.25-.968.25-.968.25-.968.804.482.831.557.831.556.079.052"/><path fill="#fff" stroke="transparent" d="M774-2373v5h-22v-10h22v5"/><text x="751.75" y="-2369.9" font-family="Times,serif" font-size="9">1,587</text></g><g class="node"><text x="491.83" y="-2329.2" font-family="Times,serif" font-size="12">s1uRxIPCksum</text><text x="506.504" y="-2316.9" font-family="Times,serif" font-style="italic" font-size="9" fill="#888">IPChecksum</text><path fill="#01295f" stroke="transparent" d="M530-2307.5v3l-.5.5h-38l-.5-.5v-6l.5-.5h38l.5.5v3"/><text x="509" y="-2305.6" font-family="Times,serif" font-size="6" fill="#fff">0</text><path fill="#01295f" stroke="transparent" d="M568-2307.5v3l-.5.5h-37l-.5-.5v-6l.5-.5h37l.5.5v3h0"/><text x="547.5" y="-2305.6" font-family="Times,serif" font-size="6" fill="#fff">1</text><path fill="none" stroke="#000" d="M568.5-2323v19l-.5.5h-78l-.5-.5v-38l.5-.5h78l.5.5v19h0"/></g><g class="edge"><path fill="none" stroke="#ffb30f" d="M696-2402.5l-.12.99-.316.948-.45.893-.538.842-.603.797-.65.76-.685.729-.712.702-.734.678-.753.659-.768.64-.78.626-.792.61-.8.6-.81.588-.817.576-.823.568-.829.559-.834.55-.84.545-.843.536-.848.53-.852.524-.855.519-.858.513-.861.508-.864.504-.867.5-.869.494-.871.49-.874.488-.875.483-.877.48-.88.476-.882.472-.882.47-.884.467-.886.465-.887.461-.888.459-.89.457-.891.453-.892.453-.894.448-.894.448-.895.445-.897.442-.897.443-.9.438-.898.437-.9.436-.902.432-.901.433-.904.43-.903.428-.904.427-.906.425-.905.424-.907.422-.907.42-.907.421-.91.418-.908.417-.91.415-.91.414-.91.413-.912.412-.912.41-.912.41-.913.407-.914.408-.913.406-.915.404-.915.404-.915.403-.916.401-.916.402-.917.399-.917.399-.917.398-.918.396-.918.396-.919.395-.92.394-.919.393-.92.392-.92.39-.921.39-.921.39-.92.39-.922.39-.922.386-.923.386-.922.386-.923.385-.923.386-.923.385-.924.381-.924.382-.925.381-.924.382-.924.382-.926.379-.926.377-.926.378-.926.378-.925.378-.926.377-.928.375-.927.374-.927.374-.928.375-.927.374-.928.372-.929.371-.928.371-.929.371-.928.372-.93.37-.929.368-.93.368-.93.368-.93.369-.93.367-.93.366-.93.366-.932.365-.93.365-.932.365-.93.364-.933.363-.932.362-.932.363-.932.362-.932.362-.933.36-.933.36-.933.36-.933.36-.745.287"/><path fill="#ffb30f" stroke="#ffb30f" d="M573.276-2339.332l.357.934-.093.633-1 .029-1 .029-.999.029-1 .029-.938.005.764-.646.763-.646.763-.646.764-.646.763-.646.464.52.358.933.034.089"/><path fill="#fff" stroke="transparent" d="M705-2373v5h-38v-10h38v5h0"/><text x="666.875" y="-2369.9" font-family="Times,serif" font-size="9">1,083,258</text></g><g class="node"><text x="694.334" y="-2618.2" font-family="Times,serif" font-size="12">s1uFastPI</text><text x="704.754" y="-2605.9" font-family="Times,serif" font-style="italic" font-size="9" fill="#888">PortInc</text><text x="685.749" y="-2592.9" font-family="Times,serif" font-size="9">s1uFast/PMDPort</text><path fill="none" stroke="#000" d="M752-2610v21h-68v-42h68v21h0"/></g><g class="node"><text x="681.669" y="-2518.2" font-family="Times,serif" font-size="12">s1u_timestamp</text><text x="697.754" y="-2505.9" font-family="Times,serif" font-style="italic" font-size="9" fill="#888">Timestamp</text><path fill="none" stroke="#000" d="M756-2515v16h-76v-32h76v16"/></g><g class="edge"><path fill="none" stroke="#ffb30f" d="M718-2588.917v52.81"/><path fill="#ffb30f" stroke="#ffb30f" d="M718.875-2533.508l-.33.944-.33.944-.331.28-.33-.943-.33-.944-.331-.944-.33-.944-.259-.893h3l.263.523-.33.943-.33.944-.032.09"/><path fill="#fff" stroke="transparent" d="M758-2560v5h-38v-10h38v5h0"/><text x="719.875" y="-2556.9" font-family="Times,serif" font-size="9">1,084,845</text></g><g class="node"><text x="461" y="-33.2" font-family="Times,serif" font-size="12">s1uFastPO</text><text x="472.751" y="-20.9" font-family="Times,serif" font-style="italic" font-size="9" fill="#888">PortOut</text><text x="454.749" y="-7.9" font-family="Times,serif" font-size="9">s1uFast/PMDPort</text><path fill="none" stroke="#000" d="M521-25v21h-68v-42h68v21h0"/></g><g class="node"><text x="618.009" y="-313.2" font-family="Times,serif" font-size="12">s1uMerge</text><text x="630.257" y="-300.9" font-family="Times,serif" font-style="italic" font-size="9" fill="#888">Merge</text><path fill="none" stroke="#000" d="M673-310v16h-62v-32h62v16"/></g><g class="node"><text x="604.677" y="-223.2" font-family="Times,serif" font-size="12">s1uSrcEther</text><text x="621.006" y="-210.9" font-family="Times,serif" font-style="italic" font-size="9" fill="#888">Update</text><path fill="none" stroke="#000" d="M665-220v16h-62v-32h62v16"/></g><g class="edge"><path fill="none" stroke="#ffb30f" d="M640.57-293.91l-.089.996-.088.996-.089.996-.088.996-.089.997-.088.996-.089.996-.088.996-.09.996-.088.996-.088.996-.089.996-.088.996-.089.996-.088.996-.089.996-.088.996-.089.997-.088.996-.089.996-.089.996-.088.996-.089.996-.088.996-.089.996-.088.996-.089.996-.088.996-.089.996-.088.996-.089.996-.088.997-.09.996-.088.996-.088.996-.089.996-.088.996-.089.996-.088.996-.089.996-.088.996-.089.996-.088.996-.089.996-.089.996-.088.997-.089.996-.088.996-.089.996-.088.996-.089.996-.088.996-.056.63"/><path fill="#ffb30f" stroke="#ffb30f" d="M636.608-238.822l-.413.91-.412.912-.383.57-.245-.97-.246-.969-.245-.97-.245-.969-.246-.969.852-.034.996.088.996.089.455.404-.412.91-.413.912-.039.086"/><path fill="#fff" stroke="transparent" d="M679-265v5h-38v-10h38v5h0"/><text x="640.875" y="-261.9" font-family="Times,serif" font-size="9">8,639,245</text></g><g class="node"><text x="855.666" y="-2231.2" font-family="Times,serif" font-size="12">s1uSlowPO</text><text x="869.751" y="-2218.9" font-family="Times,serif" font-style="italic" font-size="9" fill="#888">PortOut</text><text x="849.999" y="-2205.9" font-family="Times,serif" font-size="9">s1uSlow/PMDPort</text><path fill="none" stroke="#000" d="M920-2223v21h-72v-42h72v21"/></g><g class="edge"><path fill="none" stroke="#ffb30f" d="M865.09-2301.792l.233.972.234.972.233.973.233.972.234.972.233.973.233.972.234.973.233.972.234.972.233.973.233.972.234.973.233.972.233.972.234.973.233.972.233.972.234.973.233.972.234.973.233.972.233.973.234.972.233.972.233.973.234.972.233.972.234.973.233.972.233.973.234.972.233.972.233.973.234.972.233.972.234.973.233.972.233.973.234.972.233.972.233.973.234.972.233.973.234.972.233.972.233.973.234.972.233.972.233.973.234.972.233.973.234.972.233.973.04.17"/><path fill="#ffb30f" stroke="#ffb30f" d="M879.185-2246.812l-.101.995-.1.995-.257.35-.541-.841-.542-.84-.541-.841-.542-.841-.46-.808.973-.233.972-.234.973-.233.377.447-.1.995-.101.995-.01.094"/><path fill="#fff" stroke="transparent" d="M897-2273v5h-22v-10h22v5"/><text x="874.75" y="-2269.9" font-family="Times,serif" font-size="9">1,587</text></g><g class="node"><text x="558.503" y="-403.2" font-family="Times,serif" font-size="12">s1uRoutesDstMAC6805CA37DF33</text><text x="632.506" y="-390.9" font-family="Times,serif" font-style="italic" font-size="9" fill="#888">Update</text><path fill="none" stroke="#000" d="M733.5-400v16h-177v-32h177v16h0"/></g><g class="edge"><path fill="none" stroke="#ffb30f" d="M729-474.5l-.044.999-.123.992-.194.98-.254.968-.308.95-.353.936-.394.92-.428.903-.459.889-.486.874-.51.86-.53.847-.55.835-.568.824-.583.812-.596.803-.61.792-.623.783-.632.775-.643.766-.652.758-.66.75-.669.744-.676.737-.683.73-.69.724-.696.718-.701.713-.708.707-.712.702-.717.696-.722.692-.727.688-.73.682-.735.679-.738.674-.742.67-.746.667-.749.663-.752.658-.756.656-.758.652-.76.648-.765.646-.766.642-.77.64-.771.635-.774.634-.776.63-.779.628-.78.625-.782.623-.785.62-.787.617-.788.616-.79.612-.793.61-.793.609-.796.605-.797.604-.799.602-.8.599-.803.597-.803.596-.805.593-.806.591-.808.59-.81.587-.81.586-.811.584-.813.582-.815.58-.815.58-.817.576-.818.576-.82.573-.82.572-.82.57-.823.57-.586.404"/><path fill="#ffb30f" stroke="#ffb30f" d="M674.801-418.193l.444.782-.966.258-.966.258-.966.259-.966.258-.966.259.252-.572.594-.804.594-.805.594-.804.594-.805.579-.016.563.827.563.826.053.079"/><path fill="#fff" stroke="transparent" d="M755-445v5h-38v-10h38v5h0"/><text x="716.875" y="-441.9" font-family="Times,serif" font-size="9">8,639,245</text></g><g class="node"><text x="769.675" y="-403.2" font-family="Times,serif" font-size="12">s1ubad_route</text><text x="793.748" y="-390.9" font-family="Times,serif" font-style="italic" font-size="9" fill="#888">Sink</text><path fill="none" stroke="#000" d="M836-400v16h-68v-32h68v16"/></g><g class="edge"><path fill="none" stroke="#ffb30f" d="M759-474.5l.01 1 .03 1 .047.998.067.998.085.996.103.995.12.993.138.99.155.988.17.985.188.983.203.979.218.976.233.972.247.97.262.964.275.962.29.957.3.953.315.95.327.945.34.94.35.937.362.932.373.928.384.923.395.92.404.914.415.91.424.905.434.901.442.897.452.892.46.888.47.883.476.879.485.874.493.87.5.866.509.862.515.857.522.852.53.849.536.844.542.84.55.836.555.831.561.828.568.823.573.82.58.815.584.811.59.807.595.804.601.799.607.795.611.791.617.788.62.783.627.78.062.078"/><path fill="#ffb30f" stroke="#ffb30f" d="M785.056-418.698l.352.935.352.936-.073.428-.86-.512-.858-.512-.86-.513-.858-.512-.771-.519.767-.641.767-.642.767-.641.537.232.352.936.352.936.034.089"/><path fill="#fff" stroke="transparent" d="M777-445v5h-6v-10h6v5"/><text x="770.625" y="-441.9" font-family="Times,serif" font-size="9">0</text></g><g class="edge"><path fill="none" stroke="#ffb30f" d="M644.464-383.91l-.034 1-.033 1-.033.999-.034.999-.033 1-.033.999-.034 1-.033.999-.033 1-.033.999-.034 1-.033.999-.033.999-.034 1-.033.999-.033 1-.034.999-.033 1-.033.999-.034 1-.033.999-.033.999-.034 1-.033.999-.033 1-.034.999-.033 1-.033.999-.033 1-.034.999-.033.999-.033 1-.034.999-.033 1-.033.999-.034 1-.033.999-.033 1-.034.999-.033.999-.033 1-.034.999-.033 1-.033.999-.034 1-.033.999-.033 1-.033.999-.034.999-.033 1-.033.999-.034 1-.015.455"/><path fill="#ffb30f" stroke="#ffb30f" d="M643.522-328.782l-.361.932-.362.933-.343.387-.3-.954-.298-.955-.299-.954-.298-.954-.299-.955.988.025 1 .034.999.033.33.475-.36.932-.362.932-.035.089"/><path fill="#fff" stroke="transparent" d="M684-355v5h-38v-10h38v5h0"/><text x="645.875" y="-351.9" font-family="Times,serif" font-size="9">8,639,245</text></g><g class="node"><text x="501.997" y="-2226.2" font-family="Times,serif" font-size="12">s1uRxIPCksumFail</text><text x="540.748" y="-2213.9" font-family="Times,serif" font-style="italic" font-size="9" fill="#888">Sink</text><path fill="none" stroke="#000" d="M598-2223v16h-98v-32h98v16h0"/></g><g class="edge"><path fill="none" stroke="#ffb30f" d="M549-2304v59.597"/><path fill="#ffb30f" stroke="#ffb30f" d="M549.875-2241.637l-.33.944-.33.944-.331.28-.33-.943-.33-.944-.331-.944-.33-.944-.259-.893h3l.263.523-.33.944-.33.944-.032.09"/><path fill="#fff" stroke="transparent" d="M557-2273v5h-6v-10h6v5"/><text x="550.625" y="-2269.9" font-family="Times,serif" font-size="9">0</text></g><g class="node"><text x="375.665" y="-2229.2" font-family="Times,serif" font-size="12">s1uRxUDPCksum</text><text x="396.004" y="-2216.9" font-family="Times,serif" font-style="italic" font-size="9" fill="#888">L4Checksum</text><path fill="#01295f" stroke="transparent" d="M420-2207.5v3l-.5.5h-44l-.5-.5v-6l.5-.5h44l.5.5v3h0"/><text x="396" y="-2205.6" font-family="Times,serif" font-size="6" fill="#fff">0</text><path fill="#01295f" stroke="transparent" d="M465-2207.5v3l-.5.5h-44l-.5-.5v-6l.5-.5h44l.5.5v3h0"/><text x="441" y="-2205.6" font-family="Times,serif" font-size="6" fill="#fff">1</text><path fill="none" stroke="#000" d="M466-2223v19l-.5.5h-91l-.5-.5v-38l.5-.5h91l.5.5v19h0"/></g><g class="edge"><path fill="none" stroke="#ffb30f" d="M510-2304l-.04.999-.115.993-.18.984-.238.97-.289.958-.332.943-.373.928-.406.913-.437.9-.463.886-.488.873-.508.861-.529.85-.545.837-.562.827-.576.818-.59.808-.601.798-.613.79-.623.783-.633.774-.642.767-.65.76-.658.752-.665.747-.673.74-.678.735-.685.729-.69.723-.697.718-.7.712-.707.709-.71.705-.715.698-.72.694-.722.692-.727.686-.731.682-.734.68-.737.675-.742.671-.744.669-.746.665-.75.661-.753.659-.755.656-.758.651-.76.65-.763.647-.765.643-.768.642-.769.639-.772.635-.774.634-.775.631-.778.628-.78.627-.781.624-.783.621-.785.62-.787.618-.788.615-.79.613-.792.611-.793.61-.794.607-.796.605-.798.603-.798.602-.8.6-.803.597-.803.595-.804.596-.805.593-.807.59-.807.59-.81.588-.81.585-.81.586-.813.583-.814.58-.814.582-.355.253"/><path fill="#ffb30f" stroke="#ffb30f" d="M454.567-2244.721l.374.747-.962.272-.963.272-.962.272-.962.272-.963.272.325-.631.583-.813.582-.813.583-.813.582-.813.579.062.574.818.575.818.055.078"/><path fill="#fff" stroke="transparent" d="M535-2273v5h-38v-10h38v5h0"/><text x="496.875" y="-2269.9" font-family="Times,serif" font-size="9">1,083,258</text></g><g class="node"><text x="389.831" y="-2131.2" font-family="Times,serif" font-size="12">s1uRxUDPCksumFail</text><text x="435.248" y="-2118.9" font-family="Times,serif" font-style="italic" font-size="9" fill="#888">Sink</text><path fill="none" stroke="#000" d="M498.5-2128v16h-111v-32h111v16"/></g><g class="edge"><path fill="none" stroke="#ffb30f" d="M443-2204v54.65"/><path fill="#ffb30f" stroke="#ffb30f" d="M443.875-2146.513l-.33.944-.33.944-.331.28-.33-.943-.33-.944-.331-.944-.33-.944-.259-.893h3l.263.523-.33.944-.33.943-.032.09"/><path fill="#fff" stroke="transparent" d="M451-2173v5h-6v-10h6v5"/><text x="444.625" y="-2169.9" font-family="Times,serif" font-size="9">0</text></g><g class="node"><text x="292.34" y="-2131.2" font-family="Times,serif" font-size="12">setattr1</text><text x="287.509" y="-2118.9" font-family="Times,serif" font-style="italic" font-size="9" fill="#888">SetMetadata</text><path fill="none" stroke="#000" d="M341-2128v16h-62v-32h62v16"/></g><g class="edge"><path fill="none" stroke="#ffb30f" d="M397-2204l-.011 1-.033 1-.056.998-.077.997-.1.995-.123.992-.145.99-.166.986-.189.981-.21.978-.232.973-.253.967-.273.962-.295.956-.315.949-.334.942-.354.935-.372.929-.392.92-.41.912-.427.904-.444.896-.46.888-.478.878-.492.87-.508.862-.522.853-.537.843-.55.835-.565.826-.576.817-.59.808-.6.799-.613.79-.625.781-.634.773-.646.764-.654.756-.666.746-.674.739-.684.73-.692.721-.7.714-.709.705-.717.698-.724.69-.731.681-.738.675-.746.666-.752.66-.758.651-.764.645-.771.638-.776.63-.782.624-.787.617-.792.61-.797.604-.803.596-.806.591-.812.584-.816.579-.82.57-.825.568-.829.559-.832.554-.836.549-.84.543-.844.536-.847.532-.85.526-.853.521-.858.515-.86.51-.863.505-.866.5-.87.495-.871.49-.874.485-.877.48-.88.475-.883.47-.885.466-.639.335"/><path fill="#ffb30f" stroke="#ffb30f" d="M346.048-2142.247l.449.893-.458.413-.992.128-.991.127-.992.128-.992.128-.432-.153.695-.718.696-.718.695-.719.696-.718.687-.664.448.894.449.894.042.085"/><path fill="#fff" stroke="transparent" d="M430-2173v5h-38v-10h38v5h0"/><text x="391.875" y="-2169.9" font-family="Times,serif" font-size="9">1,083,258</text></g><g class="node"><text x="409" y="-133.2" font-family="Times,serif" font-size="12">s1uSlowPI</text><text x="421.754" y="-120.9" font-family="Times,serif" font-style="italic" font-size="9" fill="#888">PortInc</text><text x="400.998" y="-107.9" font-family="Times,serif" font-size="9">s1uSlow/PMDPort</text><path fill="none" stroke="#000" d="M471-125v21h-72v-42h72v21"/></g><g class="edge"><path fill="none" stroke="#ffb30f" d="M446.028-103.793l.461.888.462.887.461.887.461.887.462.887.461.888.461.887.462.887.461.887.461.888.462.887.461.887.461.887.462.887.461.888.462.887.46.887.462.887.462.888.46.887.462.887.462.887.461.887.461.888.462.887.461.887.461.887.462.887.461.888.461.887.462.887.461.887.462.888.46.887.462.887.462.887.46.887.462.888.462.887.461.887.461.887.462.888.461.887.461.887.462.887.461.887.461.888.462.887.461.887.461.887.462.887.461.888.462.887.46.887.462.887.462.888.46.887.462.887.462.887.393.757"/><path fill="#ffb30f" stroke="#ffb30f" d="M475.611-48.799l.142.99.143.99-.164.401-.728-.685-.729-.685-.729-.685-.728-.685-.642-.672.888-.462.887-.461.887-.462.475.343.142.99.142.99.014.093"/><path fill="#fff" stroke="transparent" d="M489-75v5h-22v-10h22v5"/><text x="466.75" y="-71.9" font-family="Times,serif" font-size="9">1,106</text></g><g class="node"><text x="506.678" y="-128.2" font-family="Times,serif" font-size="12">s1u_measure</text><text x="522.509" y="-115.9" font-family="Times,serif" font-style="italic" font-size="9" fill="#888">Measure</text><path fill="none" stroke="#000" d="M571-125v16h-66v-32h66v16h0"/></g><g class="edge"><path fill="none" stroke="#ffb30f" d="M623.843-203.547l-.551.835-.553.833-.556.832-.558.83-.56.828-.563.827-.565.824-.568.824-.57.821-.573.82-.575.817-.578.817-.58.814-.585.812-.586.81-.588.808-.592.806-.595.804-.598.802-.6.8-.604.797-.607.795-.61.792-.613.79-.616.788-.62.784-.623.783-.626.779-.63.776-.634.774-.638.77-.64.768-.646.764-.65.76-.652.758-.658.753-.662.75-.665.746-.671.742-.675.737-.68.733-.686.729-.69.724-.695.718-.7.714-.707.708-.71.703-.716.699-.72.694-.724.69-.728.685-.733.68-.736.678-.74.672-.743.669-.747.665-.75.661-.754.658-.757.653-.76.65-.762.647-.765.644-.768.64-.771.637-.774.634-.776.63-.779.628-.78.625-.784.622-.785.618-.788.616-.79.613-.793.61-.794.608-.796.605-.798.602-.8.6-.803.597-.804.595-.805.592-.808.59-.81.587-.683.494"/><path fill="#ffb30f" stroke="#ffb30f" d="M567.617-143.215l.351.737-.96.276-.962.277-.96.276-.962.276-.96.277.347-.652.578-.815.58-.815.578-.816.58-.815.578.085.578.816.579.816.055.077"/><path fill="#fff" stroke="transparent" d="M648-175v5h-38v-10h38v5h0"/><text x="609.875" y="-171.9" font-family="Times,serif" font-size="9">8,639,245</text></g><g class="edge"><path fill="none" stroke="#ffb30f" d="M529.806-108.933l-.454.89-.455.891-.454.891-.454.891-.455.89-.454.892-.454.89-.455.891-.454.891-.454.891-.455.89-.454.892-.454.89-.455.891-.454.891-.454.891-.454.89-.455.892-.454.89-.454.891-.455.891-.454.891-.454.89-.455.892-.454.89-.454.891-.455.891-.454.891-.454.89-.455.892-.454.89-.454.891-.455.891-.454.891-.454.89-.455.892-.454.89-.454.891-.455.891-.454.891-.454.891-.455.89-.454.892-.454.89-.455.891-.454.891-.454.891-.455.89-.454.892-.454.89-.455.891-.454.891-.454.891-.455.89-.454.892-.454.89-.455.891-.454.891-.454.891-.455.89-.454.892-.454.89-.454.891-.455.891-.454.891-.12.236"/><path fill="#ffb30f" stroke="#ffb30f" d="M500.589-48.882l-.723.691-.723.69-.724.691-.551.355.135-.991.134-.991.135-.991.134-.991.135-.991.817.314.89.454.892.454.24.55-.722.69-.07.066"/><path fill="#fff" stroke="transparent" d="M556-75v5h-38v-10h38v5h0"/><text x="517.875" y="-71.9" font-family="Times,serif" font-size="9">8,639,245</text></g><g class="edge"><path fill="none" stroke="#ffb30f" d="M718-2498.713v52.131"/><path fill="#ffb30f" stroke="#ffb30f" d="M718.875-2443.665l-.33.944-.33.944-.331.28-.33-.943-.33-.944-.331-.944-.33-.944-.259-.893h3l.263.523-.33.944-.33.944-.032.09"/><path fill="#fff" stroke="transparent" d="M758-2470v5h-38v-10h38v5h0"/><text x="719.875" y="-2466.9" font-family="Times,serif" font-size="9">1,084,845</text></g><g class="node"><text x="21.34" y="-2131.2" font-family="Times,serif" font-size="12">setattr0</text><text x="16.509" y="-2118.9" font-family="Times,serif" font-style="italic" font-size="9" fill="#888">SetMetadata</text><path fill="none" stroke="#000" d="M70-2128v16H8v-32h62v16"/></g><g class="edge"><path fill="none" stroke="#ffb30f" d="M70.16-2114.777l.925.38.925.379.925.38.925.378.926.378.927.376.927.376.926.376.927.375.928.372.929.372.928.372.929.371.928.37.93.368.93.368.931.365.931.365.932.363.932.363.932.363.932.363.932.362.932.362.932.361.933.361.932.361.933.361.933.361.933.36.933.359.933.36.933.358.934.36.933.358.934.358.934.358.934.358.934.357.933.358.935.356.935.355.934.356.935.355.935.355.934.356.935.355.935.356.934.355.935.356.935.355.935.354.936.353.935.353.936.352.936.353.936.353.935.353.936.352.936.353.936.353.935.352.936.352.937.35.937.35.936.351.937.35.937.35.936.351.937.35.937.35.936.35.937.35.937.351.937.348.937.348.938.348.937.348.938.348.937.348.938.349.937.347.938.348.937.348.938.348.938.347.938.346.938.346.939.346.938.346.938.346.938.346.939.346.938.346.938.346.938.346.939.344.939.345.939.344.939.344.939.344.939.344.939.344.939.344.939.344.939.344.939.344.939.343.94.343.939.342.94.342.94.343.939.342.94.342.939.342.94.343.94.342.939.342.94.342.94.34.94.341.94.34.94.341.94.341.94.34.94.342.941.34.94.341.94.34.941.34.94.339.942.34.94.338.94.34.942.339.94.339.941.34.94.338.942.34.94.338.942.337.941.338.941.338.941.338.942.338.94.338.942.338.941.337.941.338.942.337.942.336.941.337.942.337.942.336.941.337.942.336.942.337.941.336.942.336.942.336.942.335.943.335.942.336.942.335.942.335.942.335.942.336.942.335.943.333.943.334.942.334.943.333.943.334.943.334.942.333.943.334.943.334.942.333.943.334.943.334.942.333.943.334.943.334.942.333.217.077"/><path fill="#ffb30f" stroke="#ffb30f" d="M245.845-2050.503l.78.625.781.625.155.405-1-.002-1-.002-1-.002-1-.002-.928-.053.332-.943.333-.943.332-.944.58-.074.78.625.781.626.074.059"/><path fill="#fff" stroke="transparent" d="M211-2083v5h-38v-10h38v5h0"/><text x="172.875" y="-2079.9" font-family="Times,serif" font-size="9">8,670,326</text></g><g class="edge"><path fill="none" stroke="#ffb30f" d="M304.458-2111.91l-.326.946-.326.945-.325.946-.326.945-.326.946-.325.945-.326.945-.326.946-.325.945-.326.946-.326.945-.325.946-.326.945-.326.946-.325.945-.326.946-.326.945-.325.946-.326.945-.326.946-.325.945-.326.946-.326.945-.325.946-.326.945-.326.946-.325.945-.326.946-.326.945-.325.946-.326.945-.326.946-.325.945-.326.946-.326.945-.325.945-.326.946-.326.946-.325.945-.326.945-.326.946-.325.946-.326.945-.326.945-.325.946-.326.945-.326.946-.325.945-.326.946-.326.945-.325.946-.326.945-.325.946-.326.945-.326.946-.29.843"/><path fill="#ffb30f" stroke="#ffb30f" d="M286.69-2056.903l-.62.785-.62.785-.619.784-.235-.33-.005-1-.005-1-.005-1-.005-1 .306-.566.946.326.945.325.946.326-.35.706-.62.784-.059.075"/><path fill="#fff" stroke="transparent" d="M337-2083v5h-38v-10h38v5h0"/><text x="298.875" y="-2079.9" font-family="Times,serif" font-size="9">1,083,258</text></g><g class="edge"><path fill="none" stroke="#ffb30f" d="M378.83-1521.885l-.01 1-.01 1-.011 1-.01 1-.011 1-.01 1-.011 1-.01 1-.011 1-.01 1-.011 1-.01 1-.011 1-.011 1-.01 1-.011 1-.01 1-.011 1-.01 1-.011 1-.01 1-.011 1-.01 1-.011 1-.01 1-.011.999-.01 1-.011 1-.01 1-.011 1-.01 1-.011 1-.011 1-.01 1-.011 1-.01 1-.011 1-.01 1-.011 1-.01 1-.011 1-.01 1-.011.999-.01 1-.011 1-.01 1-.011 1-.01 1-.011 1-.011 1-.01 1-.011 1-.006.606"/><path fill="#ffb30f" stroke="#ffb30f" d="M379.131-1466.714l-.34.94-.34.94-.334.314-.32-.947-.32-.947-.321-.947-.32-.948-.276-.914 1 .01 1 .011 1 .01.284.508-.34.94-.34.94-.033.09"/><path fill="#fff" stroke="transparent" d="M419-1493v5h-38v-10h38v5h0"/><text x="380.875" y="-1489.9" font-family="Times,serif" font-size="9">1,079,772</text></g><g class="node"><text x="206.327" y="-2427.7" font-family="Times,serif" font-size="12">sgiFastBPF</text><text x="225.996" y="-2415.4" font-family="Times,serif" font-style="italic" font-size="9" fill="#888">BPF</text><path fill="#01295f" stroke="transparent" d="M230-2406v3l-.5.5h-25l-.5-.5v-6l.5-.5h25l.5.5v3h0"/><text x="215.5" y="-2404.1" font-family="Times,serif" font-size="6" fill="#fff">0</text><path fill="#01295f" stroke="transparent" d="M264-2406v3l-.5.5h-33l-.5-.5v-6l.5-.5h33l.5.5v3"/><text x="241" y="-2404.1" font-family="Times,serif" font-size="6" fill="#fff">8191</text><path fill="none" stroke="#000" d="M265-2421.5v19l-.5.5h-61l-.5-.5v-38l.5-.5h61l.5.5v19"/></g><g class="node"><text x="257.667" y="-2331.2" font-family="Times,serif" font-size="12">sgiQSlowPO</text><text x="277.256" y="-2318.9" font-family="Times,serif" font-style="italic" font-size="9" fill="#888">Queue</text><text x="276.5" y="-2305.9" font-family="Times,serif" font-size="9">0/1024</text><path fill="none" stroke="#000" d="M322-2323v21h-66v-42h66v21"/></g><g class="edge"><path fill="none" stroke="#ffb30f" d="M247-2402.5l.009 1 .026 1 .043.999.06.998.075.997.092.996.107.994.124.992.138.99.152.99.167.985.18.983.195.981.208.979.222.975.234.972.247.969.258.966.27.963.282.959.294.956.304.953.314.949.325.945.336.943.345.938.355.935.364.931.374.928.382.924.392.92.4.916.409.913.416.909.425.905.432.902.44.898.448.894.454.891.462.887.468.884.476.88.482.876.488.872.495.87.501.864.508.862.513.858.519.855.525.851.53.848.535.845.541.84.547.838.552.834.557.83.562.828.567.824.571.82.07.1"/><path fill="#ffb30f" stroke="#ffb30f" d="M269.944-2346.58l.285.958.286.958-.103.422-.82-.571-.822-.572-.82-.57-.822-.572-.733-.571.81-.587.81-.586.81-.586.52.269.286.958.285.959.028.09"/><path fill="#fff" stroke="transparent" d="M274.5-2373v5h-15v-10h15v5"/><text x="259.125" y="-2369.9" font-family="Times,serif" font-size="9">987</text></g><g class="node"><text x="132.663" y="-2329.2" font-family="Times,serif" font-size="12">sgiRxIPCksum</text><text x="146.004" y="-2316.9" font-family="Times,serif" font-style="italic" font-size="9" fill="#888">IPChecksum</text><path fill="#01295f" stroke="transparent" d="M169-2307.5v3l-.5.5h-36l-.5-.5v-6l.5-.5h36l.5.5v3h0"/><text x="149" y="-2305.6" font-family="Times,serif" font-size="6" fill="#fff">0</text><path fill="#01295f" stroke="transparent" d="M206-2307.5v3l-.5.5h-36l-.5-.5v-6l.5-.5h36l.5.5v3h0"/><text x="186" y="-2305.6" font-family="Times,serif" font-size="6" fill="#fff">1</text><path fill="none" stroke="#000" d="M207-2323v19l-.5.5h-75l-.5-.5v-38l.5-.5h75l.5.5v19h0"/></g><g class="edge"><path fill="none" stroke="#ffb30f" d="M217-2402.5l-.234.968-.371.928-.414.91-.438.9-.451.892-.462.887-.47.882-.479.879-.481.876-.487.873-.49.873-.494.87-.495.867-.5.867-.5.866-.503.864-.505.863-.507.862-.507.862-.51.86-.51.86-.513.859-.513.858-.515.857-.517.856-.516.857-.517.856-.517.856-.52.855-.52.853-.52.854-.52.854-.521.854-.523.852-.524.852-.523.852-.524.852-.524.852-.525.85-.527.851-.526.85-.526.85-.527.85-.527.85-.529.85-.528.848-.529.849-.529.849-.528.849-.531.847-.53.848-.531.848-.53.847-.532.848-.532.846-.533.846-.533.846-.533.846-.533.847-.533.845-.533.847-.533.846-.533.846-.533.846-.229.362"/><path fill="#ffb30f" stroke="#ffb30f" d="M184.872-2345.308l-.784.62-.785.621-.784.62-.784.621.067-.722.226-.974.226-.974.226-.974.226-.975.563-.152.845.535.844.536.772.538-.784.621-.074.06"/><path fill="#fff" stroke="transparent" d="M245-2373v5h-38v-10h38v5h0"/><text x="206.875" y="-2369.9" font-family="Times,serif" font-size="9">8,670,326</text></g><g class="node"><text x="211.667" y="-2618.2" font-family="Times,serif" font-size="12">sgiFastPI</text><text x="220.754" y="-2605.9" font-family="Times,serif" font-style="italic" font-size="9" fill="#888">PortInc</text><text x="202.749" y="-2592.9" font-family="Times,serif" font-size="9">sgiFast/PMDPort</text><path fill="none" stroke="#000" d="M267-2610v21h-66v-42h66v21"/></g><g class="node"><text x="199.502" y="-2518.2" font-family="Times,serif" font-size="12">sgi_timestamp</text><text x="214.254" y="-2505.9" font-family="Times,serif" font-style="italic" font-size="9" fill="#888">Timestamp</text><path fill="none" stroke="#000" d="M270.5-2515v16h-73v-32h73v16h0"/></g><g class="edge"><path fill="none" stroke="#ffb30f" d="M234-2588.917v52.81"/><path fill="#ffb30f" stroke="#ffb30f" d="M234.875-2533.508l-.33.944-.33.944-.331.28-.33-.943-.33-.944-.331-.944-.33-.944-.259-.893h3l.263.523-.33.943-.33.944-.032.09"/><path fill="#fff" stroke="transparent" d="M274-2560v5h-38v-10h38v5h0"/><text x="235.875" y="-2556.9" font-family="Times,serif" font-size="9">8,671,313</text></g><g class="node"><text x="671.333" y="-33.2" font-family="Times,serif" font-size="12">sgiFastPO</text><text x="681.751" y="-20.9" font-family="Times,serif" font-style="italic" font-size="9" fill="#888">PortOut</text><text x="664.749" y="-7.9" font-family="Times,serif" font-size="9">sgiFast/PMDPort</text><path fill="none" stroke="#000" d="M729-25v21h-66v-42h66v21"/></g><g class="node"><text x="353.342" y="-313.2" font-family="Times,serif" font-size="12">sgiMerge</text><text x="364.257" y="-300.9" font-family="Times,serif" font-style="italic" font-size="9" fill="#888">Merge</text><path fill="none" stroke="#000" d="M407-310v16h-62v-32h62v16"/></g><g class="node"><text x="507.009" y="-223.2" font-family="Times,serif" font-size="12">sgiSrcEther</text><text x="522.006" y="-210.9" font-family="Times,serif" font-style="italic" font-size="9" fill="#888">Update</text><path fill="none" stroke="#000" d="M566-220v16h-62v-32h62v16"/></g><g class="edge"><path fill="none" stroke="#ffb30f" d="M404.426-293.91l.87.493.87.492.87.493.871.493.87.492.87.493.87.492.871.493.87.493.87.492.87.493.871.492.87.493.87.493.87.492.871.493.87.492.87.493.87.493.871.492.87.493.87.492.87.493.871.493.87.492.87.493.87.492.871.493.87.493.87.492.871.493.87.492.87.493.87.493.871.492.87.493.87.492.87.493.871.493.87.492.87.493.87.492.871.493.87.493.87.492.87.493.871.492.87.493.87.493.87.492.871.493.87.492.87.493.87.493.871.492.87.493.87.492.87.493.871.493.87.492.87.493.87.492.871.493.87.493.87.492.87.493.871.492.87.493.87.492.871.493.87.493.87.492.87.493.871.492.87.493.87.493.87.492.871.493.87.492.87.493.87.493.871.492.87.493.87.492.87.493.871.493.87.492.87.493.87.492.871.493.87.493.87.492.87.493.871.492.87.493.87.493.87.492.871.493.87.492.87.493.871.493.87.492.87.493.87.492.871.493.87.493.87.492.87.493.871.492.87.493.87.493.87.492.146.082"/><path fill="#ffb30f" stroke="#ffb30f" d="M504.808-238.095l.659.752.658.752.082.426-.984-.177-.984-.178-.985-.177-.984-.178-.904-.214.492-.87.493-.87.492-.871.585.028.659.753.658.752.063.072"/><path fill="#fff" stroke="transparent" d="M506-265v5h-38v-10h38v5h0"/><text x="467.875" y="-261.9" font-family="Times,serif" font-size="9">1,080,719</text></g><g class="node"><text x="277.998" y="-2231.2" font-family="Times,serif" font-size="12">sgiSlowPO</text><text x="290.751" y="-2218.9" font-family="Times,serif" font-style="italic" font-size="9" fill="#888">PortOut</text><text x="271.998" y="-2205.9" font-family="Times,serif" font-size="9">sgiSlow/PMDPort</text><path fill="none" stroke="#000" d="M340-2223v21h-70v-42h70v21h0"/></g><g class="edge"><path fill="none" stroke="#ffb30f" d="M292.393-2301.792l.158.987.158.987.158.988.158.987.158.988.158.987.158.988.158.987.158.987.158.988.158.987.158.988.158.987.158.988.158.987.158.988.158.987.158.987.158.988.158.987.158.988.158.987.158.988.158.987.158.988.158.987.158.987.158.988.158.987.158.988.158.987.158.988.158.987.158.988.158.987.158.987.158.988.158.987.158.988.158.987.158.988.158.987.158.987.158.988.158.987.158.988.158.987.158.988.158.987.158.988.158.987.158.987.145.907"/><path fill="#ffb30f" stroke="#ffb30f" d="M302.08-2246.784l-.176.984-.177.985-.282.329-.476-.88-.475-.88-.475-.88-.476-.88-.396-.84.988-.158.987-.158.987-.158.343.475-.177.984-.178.984-.016.093"/><path fill="#fff" stroke="transparent" d="M315.5-2273v5h-15v-10h15v5"/><text x="300.125" y="-2269.9" font-family="Times,serif" font-size="9">987</text></g><g class="node"><text x="250.836" y="-403.2" font-family="Times,serif" font-size="12">sgiRoutesDstMAC6805CA37DF33</text><text x="323.506" y="-390.9" font-family="Times,serif" font-style="italic" font-size="9" fill="#888">Update</text><path fill="none" stroke="#000" d="M423.5-400v16h-175v-32h175v16"/></g><g class="edge"><path fill="none" stroke="#ffb30f" d="M353-474.5l-.005 1-.014 1-.024 1-.033 1-.041.998-.05.999-.058.998-.066.998-.073.997-.082.997-.088.996-.096.996-.103.994-.11.994-.116.993-.122.993-.13.991-.135.991-.14.99-.148.99-.152.988-.158.987-.164.987-.169.985-.174.985-.18.984-.185.982-.19.982-.193.981-.2.98-.203.98-.208.978-.213.977-.217.976-.221.975-.226.974-.23.973-.233.973-.238.971-.242.97-.246.97-.25.968-.253.967-.257.967-.26.965-.265.964-.268.964-.272.962-.276.961-.278.96-.282.96-.286.959-.289.957-.292.956-.214.694"/><path fill="#ffb30f" stroke="#ffb30f" d="M343.848-418.684l-.602.798-.603.799-.602.798-.21-.43-.026-1-.027-1-.027-1-.027-1 .35-.495.953.304.953.305.952.305-.425.742-.602.798-.057.076"/><path fill="#fff" stroke="transparent" d="M391-445v5h-38v-10h38v5h0"/><text x="352.875" y="-441.9" font-family="Times,serif" font-size="9">1,080,719</text></g><g class="node"><text x="459.508" y="-403.2" font-family="Times,serif" font-size="12">sgibad_route</text><text x="482.248" y="-390.9" font-family="Times,serif" font-style="italic" font-size="9" fill="#888">Sink</text><path fill="none" stroke="#000" d="M522.5-400v16h-65v-32h65v16h0"/></g><g class="edge"><path fill="none" stroke="#ffb30f" d="M383-474.5l.042.999.12.992.192.982.256.966.314.95.364.93.409.913.447.894.483.876.513.858.54.842.565.825.586.81.606.796.624.781.64.769.653.756.668.745.68.734.69.723.7.713.711.704.72.695.727.686.735.678.742.67.749.663.755.655.761.65.766.642.772.635.777.63.78.625.787.618.79.613.793.609.798.602.802.599.804.593.808.59.812.584.814.58.817.577.82.573.822.568.826.565.827.561.83.558.833.554.834.551.837.548.839.544.84.542.843.538.845.536.846.532.848.53.85.527.851.525.853.522.855.519.856.516.858.515.859.512.86.51.863.506.862.506.865.501.865.502.868.498.868.496.869.495.87.492.872.49.873.488.873.487.875.484.876.483.876.481.879.479.878.477.88.475.88.474.882.473.883.47.883.469.884.466.885.466.886.464.887.462.887.461.889.46.519.267"/><path fill="#ffb30f" stroke="#ffb30f" d="M455.484-417.255l.692.722.69.723.101.422-.991-.134-.991-.134-.991-.134-.991-.134-.913-.175.454-.89.453-.892.454-.891.586.003.69.722.692.723.065.069"/><path fill="#fff" stroke="transparent" d="M423-445v5h-6v-10h6v5"/><text x="416.625" y="-441.9" font-family="Times,serif" font-size="9">0</text></g><g class="edge"><path fill="none" stroke="#ffb30f" d="M343.151-383.91l.406.914.407.914.406.914.406.913.406.914.406.914.406.914.406.914.406.914.407.913.406.914.406.914.406.914.406.914.406.913.406.914.407.914.406.914.406.914.406.913.406.914.406.914.406.914.407.914.406.913.406.914.406.914.406.914.406.914.406.914.407.913.406.914.406.914.406.914.406.914.406.913.406.914.406.914.407.914.406.914.406.913.406.914.406.914.406.914.406.914.407.914.406.913.406.914.406.914.406.914.406.914.406.913.407.914.406.914.406.914.406.914.406.913.337.758"/><path fill="#ffb30f" stroke="#ffb30f" d="M368.56-328.894l.082.996.081.997-.188.39-.685-.727-.685-.729-.686-.728-.685-.728-.599-.711.914-.407.914-.406.913-.406.453.37.082.997.081.997.008.095"/><path fill="#fff" stroke="transparent" d="M399-355v5h-38v-10h38v5h0"/><text x="360.875" y="-351.9" font-family="Times,serif" font-size="9">1,080,719</text></g><g class="node"><text x="142.829" y="-2226.2" font-family="Times,serif" font-size="12">sgiRxIPCksumFail</text><text x="180.248" y="-2213.9" font-family="Times,serif" font-style="italic" font-size="9" fill="#888">Sink</text><path fill="none" stroke="#000" d="M235.5-2223v16h-95v-32h95v16h0"/></g><g class="edge"><path fill="none" stroke="#ffb30f" d="M188-2304v59.597"/><path fill="#ffb30f" stroke="#ffb30f" d="M188.875-2241.637l-.33.944-.33.944-.331.28-.33-.943-.33-.944-.331-.944-.33-.944-.259-.893h3l.263.523-.33.944-.33.944-.032.09"/><path fill="#fff" stroke="transparent" d="M196-2273v5h-6v-10h6v5"/><text x="189.625" y="-2269.9" font-family="Times,serif" font-size="9">0</text></g><g class="node"><text x="17.997" y="-2229.2" font-family="Times,serif" font-size="12">sgiRxUDPCksum</text><text x="37.004" y="-2216.9" font-family="Times,serif" font-style="italic" font-size="9" fill="#888">L4Checksum</text><path fill="#01295f" stroke="transparent" d="M61-2207.5v3l-.5.5h-43l-.5-.5v-6l.5-.5h43l.5.5v3h0"/><text x="37.5" y="-2205.6" font-family="Times,serif" font-size="6" fill="#fff">0</text><path fill="#01295f" stroke="transparent" d="M105-2207.5v3l-.5.5h-43l-.5-.5v-6l.5-.5h43l.5.5v3h0"/><text x="81.5" y="-2205.6" font-family="Times,serif" font-size="6" fill="#fff">1</text><path fill="none" stroke="#000" d="M106-2223v19l-.5.5h-89l-.5-.5v-38l.5-.5h89l.5.5v19"/></g><g class="edge"><path fill="none" stroke="#ffb30f" d="M150-2304l-.04.999-.115.993-.18.984-.237.97-.288.958-.332.943-.372.929-.405.914-.435.9-.461.887-.486.875-.507.861-.526.85-.544.84-.56.829-.573.819-.587.81-.6.8-.61.792-.62.784-.63.776-.64.77-.647.762-.655.755-.663.75-.67.742-.675.737-.682.732-.688.726-.692.721-.699.715-.703.712-.707.707-.712.702-.717.697-.72.694-.723.69-.728.686-.731.682-.734.68-.739.674-.74.671-.744.669-.747.665-.75.661-.752.66-.755.656-.757.652-.76.65-.762.648-.764.645-.767.642-.768.64-.771.637-.773.635-.774.632-.777.63-.778.628-.78.626-.783.623-.783.622-.785.618-.787.617-.788.616-.79.613-.792.611-.793.61-.794.607-.796.605-.797.604-.8.6-.8.601-.8.6-.803.596-.803.595-.804.595-.807.59-.807.59-.807.591-.81.586-.811.586-.763.551"/><path fill="#ffb30f" stroke="#ffb30f" d="M95.234-2244.776l.343.733-.96.278-.961.278-.96.278-.961.278-.961.277.356-.658.578-.817.577-.816.578-.816.578-.817.578.095.58.815.58.815.055.077"/><path fill="#fff" stroke="transparent" d="M176-2273v5h-38v-10h38v5h0"/><text x="137.875" y="-2269.9" font-family="Times,serif" font-size="9">8,670,327</text></g><g class="edge"><path fill="none" stroke="#ffb30f" d="M39-2204v54.65"/><path fill="#ffb30f" stroke="#ffb30f" d="M39.875-2146.513l-.33.944-.33.944-.331.28-.33-.943-.33-.944-.331-.944-.33-.944-.259-.893h3l.263.523-.33.944-.33.943-.032.09"/><path fill="#fff" stroke="transparent" d="M79-2173v5H41v-10h38v5h0"/><text x="40.875" y="-2169.9" font-family="Times,serif" font-size="9">8,670,327</text></g><g class="node"><text x="105.664" y="-2131.2" font-family="Times,serif" font-size="12">sgiRxUDPCksumFail</text><text x="149.748" y="-2118.9" font-family="Times,serif" font-style="italic" font-size="9" fill="#888">Sink</text><path fill="none" stroke="#000" d="M212-2128v16H104v-32h108v16h0"/></g><g class="edge"><path fill="none" stroke="#ffb30f" d="M83-2204l.012 1 .033 1 .056.998.077.997.1.995.122.992.144.99.165.986.186.982.208.978.229.974.249.968.269.963.288.958.308.951.327.945.345.939.364.932.38.924.398.918.414.91.431.902.446.895.461.887.476.88.491.871.504.864.518.855.53.848.543.84.556.831.567.824.578.816.59.807.6.8.61.792.62.785.63.777.64.769.648.761.656.754.665.747.674.74.68.731.69.726.696.718.703.71.71.704.717.698.724.69.729.684.735.677.742.671.746.666.753.658.758.652.764.646.768.64.773.634.778.629.782.623.787.617.792.61.796.606.8.6.804.595.807.59.812.583.815.58.819.574.822.569.826.563.028.02"/><path fill="#ffb30f" stroke="#ffb30f" d="M125.017-2146.233l.608.794.608.793.054.43-.97-.24-.971-.242-.97-.241-.97-.241-.89-.274.549-.836.548-.836.548-.837.582.067.608.794.608.794.058.075"/><path fill="#fff" stroke="transparent" d="M108-2173v5h-6v-10h6v5"/><text x="101.625" y="-2169.9" font-family="Times,serif" font-size="9">0</text></g><g class="node"><text x="713.332" y="-133.2" font-family="Times,serif" font-size="12">sgiSlowPI</text><text x="724.754" y="-120.9" font-family="Times,serif" font-style="italic" font-size="9" fill="#888">PortInc</text><text x="704.998" y="-107.9" font-family="Times,serif" font-size="9">sgiSlow/PMDPort</text><path fill="none" stroke="#000" d="M773-125v21h-70v-42h70v21h0"/></g><g class="edge"><path fill="none" stroke="#ffb30f" d="M729.093-103.793l-.387.922-.388.922-.387.922-.387.922-.387.922-.388.922-.387.922-.387.922-.387.922-.387.922-.388.922-.387.922-.387.922-.387.922-.388.922-.387.922-.387.922-.387.922-.388.922-.387.922-.387.922-.387.922-.387.922-.388.922-.387.922-.387.922-.387.922-.388.922-.387.922-.387.922-.387.922-.388.922-.387.922-.387.922-.387.922-.387.922-.388.922-.387.922-.387.922-.387.922-.388.922-.387.922-.387.922-.387.922-.388.922-.387.922-.387.922-.387.922-.388.922-.387.921-.387.922-.387.922-.387.922-.388.922-.387.922-.387.922-.387.922-.053.126"/><path fill="#ffb30f" stroke="#ffb30f" d="M707.28-48.82l-.67.742-.67.742-.67.742-.349-.02.06-.999.062-.998.06-.998.062-.998.182-.803.922.387.922.388.922.387-.098.615-.67.742-.064.07"/><path fill="#fff" stroke="transparent" d="M736.5-75v5h-15v-10h15v5"/><text x="721.125" y="-71.9" font-family="Times,serif" font-size="9">987</text></g><g class="node"><text x="607.511" y="-128.2" font-family="Times,serif" font-size="12">sgi_measure</text><text x="622.009" y="-115.9" font-family="Times,serif" font-style="italic" font-size="9" fill="#888">Measure</text><path fill="none" stroke="#000" d="M668.5-125v16h-63v-32h63v16"/></g><g class="edge"><path fill="none" stroke="#ffb30f" d="M536.2-203.818l.145.989.154.988.162.987.17.985.18.984.187.982.198.98.206.979.215.976.226.975.235.972.246.969.256.967.265.964.278.96.288.958.299.954.31.95.324.947.335.942.348.938.361.932.375.927.388.922.402.916.416.909.432.902.446.895.463.886.478.878.495.87.512.858.529.849.547.837.565.825.583.813.602.798.621.784.64.767.658.754.672.741.688.725.705.71.722.691.74.672.76.65.779.628.798.603.817.576.836.548.855.518.873.489.889.458.904.427.917.398.93.37.938.343.948.32.954.298.96.28.964.267.967.255.969.248.97.243.97.243.97.243.969.247.967.254.965.26.963.272.96.282.955.295.951.308.947.322.941.337.937.35.93.367.925.381.918.396.912.41.906.425.898.438.897.443.897.442.896.443.896.444.896.446.895.445.895.445.895.448.894.447.894.448.895.447.893.45.893.45.893.449.66.331"/><path fill="#ffb30f" stroke="#ffb30f" d="M604.128-142.918l.693.721.693.721.101.422-.99-.132-.992-.131-.992-.132-.99-.131-.915-.172.452-.893.451-.892.452-.892h.585l.693.722.693.72.066.07"/><path fill="#fff" stroke="transparent" d="M590-175v5h-38v-10h38v5h0"/><text x="551.875" y="-171.9" font-family="Times,serif" font-size="9">1,080,719</text></g><g class="edge"><path fill="none" stroke="#ffb30f" d="M645.758-108.91l.483.876.483.876.483.875.483.876.483.876.484.874.485.875.485.875.486.874.485.874.487.873.487.874.487.873.488.873.488.873.489.872.489.872.49.872.49.872.49.871.492.871.491.871.493.87.493.87.493.87.494.87.495.869.495.869.495.868.497.868.497.868.497.868.5.866.498.867.5.866.5.866.501.865.502.865.503.864.504.864.504.864.506.863.506.862.506.862.51.861.509.86.509.861.512.86.513.858.514.858.515.857.516.856.518.856.519.855.519.854.52.854.522.853.523.853.523.852.524.852.525.85.525.852.527.85.527.85.528.849.529.848.53.849.244.392"/><path fill="#ffb30f" stroke="#ffb30f" d="M681.745-48.89l.221.975.222.975-.13.414-.782-.624-.781-.624-.782-.624-.781-.624-.694-.618.847-.532.847-.532.847-.531.5.303.222.975.222.975.022.092"/><path fill="#fff" stroke="transparent" d="M709-75v5h-38v-10h38v5h0"/><text x="670.875" y="-71.9" font-family="Times,serif" font-size="9">1,080,719</text></g><g class="edge"><path fill="none" stroke="#ffb30f" d="M234-2498.713v52.131"/><path fill="#ffb30f" stroke="#ffb30f" d="M234.875-2443.665l-.33.944-.33.944-.331.28-.33-.943-.33-.944-.331-.944-.33-.944-.259-.893h3l.263.523-.33.944-.33.944-.032.09"/><path fill="#fff" stroke="transparent" d="M274-2470v5h-38v-10h38v5h0"/><text x="235.875" y="-2466.9" font-family="Times,serif" font-size="9">8,671,314</text></g></g></svg>